<?xml version="1.0" standalone="no"?>
<!DOCTYPE svg PUBLIC "-//W3C//DTD SVG 20010904//EN"
 "http://www.w3.org/TR/2001/REC-SVG-20010904/DTD/svg10.dtd">
<svg version="1.0" xmlns="http://www.w3.org/2000/svg"
 width="2130.000000pt" height="2130.000000pt" viewBox="0 0 2130.000000 2130.000000"
 preserveAspectRatio="xMidYMid meet">
<metadata>
Created by potrace 1.11, written by Peter Selinger 2001-2013
</metadata>
<g transform="translate(0.000000,2130.000000) scale(0.100000,-0.100000)"
fill="#000000" stroke="none">
<path d="M19583 13893 c-8 -3 -13 -23 -13 -54 0 -55 -12 -50 115 -52 l70 -2 1
-355 c1 -195 2 -360 3 -366 1 -13 93 -13 103 1 4 5 7 152 7 325 0 173 0 334 1
356 l0 41 78 1 c42 0 83 1 90 1 8 1 12 19 12 54 l0 54 -227 0 c-126 0 -234 -2
-240 -4z"/>
<path d="M20246 13892 c-2 -4 -7 -26 -10 -48 -4 -22 -8 -49 -10 -59 -2 -11 -7
-49 -11 -85 -4 -36 -8 -67 -10 -70 -1 -3 -6 -32 -9 -65 -4 -33 -13 -100 -21
-150 -8 -49 -16 -112 -20 -140 -3 -27 -10 -79 -15 -115 -16 -110 -18 -106 43
-106 l52 1 17 130 c9 72 20 152 23 179 4 27 8 56 10 65 1 9 6 47 10 86 6 65
11 84 18 74 2 -2 36 -71 77 -154 106 -218 181 -370 184 -373 2 -1 12 -4 23 -6
17 -4 39 33 154 265 73 147 135 266 138 263 3 -2 6 -12 7 -22 18 -136 25 -191
28 -212 3 -14 10 -65 16 -115 19 -150 22 -170 27 -175 2 -3 27 -5 55 -6 l50 0
-6 48 c-7 56 -13 97 -26 188 -5 36 -12 83 -15 105 -2 22 -14 105 -25 185 -12
80 -23 163 -26 185 -13 115 -20 134 -46 135 -4 0 -78 -144 -165 -320 -87 -176
-161 -320 -164 -320 -3 0 -76 144 -162 320 -145 296 -173 341 -191 312z"/>
<path d="M1027 13814 c-4 -4 -22 -9 -39 -10 -29 -3 -61 -9 -93 -18 -5 -2 -21
-8 -35 -13 -14 -6 -28 -9 -33 -6 -4 2 -10 -3 -13 -11 -3 -9 -10 -13 -15 -10
-5 3 -9 0 -9 -6 0 -6 -4 -9 -9 -6 -5 3 -14 -1 -21 -10 -7 -8 -19 -13 -26 -10
-8 3 -13 1 -11 -3 1 -5 -10 -20 -25 -34 -16 -14 -28 -24 -28 -22 0 3 -9 -4
-20 -15 -11 -11 -20 -24 -20 -30 0 -5 -6 -10 -12 -10 -7 0 -26 -20 -43 -45
-16 -24 -33 -45 -37 -45 -5 0 -8 -6 -8 -14 0 -8 -3 -16 -7 -18 -12 -5 -68 -92
-65 -100 1 -5 -2 -8 -8 -8 -5 0 -10 -7 -10 -15 0 -8 -5 -15 -11 -15 -5 0 -8
-4 -4 -9 3 -5 -1 -16 -9 -24 -8 -8 -12 -17 -9 -21 4 -3 1 -6 -5 -6 -7 0 -11
-3 -10 -7 3 -16 -15 -43 -25 -36 -5 3 -7 1 -4 -4 7 -11 -16 -77 -24 -69 -4 4
-9 -23 -12 -71 -1 -13 -6 -23 -10 -23 -5 0 -5 -4 -2 -10 3 -5 2 -10 -2 -10 -5
0 -8 -25 -8 -56 1 -30 -3 -58 -7 -61 -5 -2 -4 -11 3 -19 9 -11 9 -17 -1 -29
-7 -8 -8 -15 -3 -15 5 0 10 -15 10 -32 1 -39 5 -58 17 -77 7 -10 5 -12 -3 -6
-8 4 -7 -4 4 -24 9 -17 13 -36 10 -41 -3 -6 -1 -10 4 -10 6 0 11 -11 11 -25 0
-14 3 -25 8 -25 4 0 12 -11 19 -25 8 -18 8 -25 0 -25 -6 0 -1 -7 11 -16 12 -8
22 -22 22 -30 0 -8 4 -14 10 -14 5 0 16 -13 24 -29 9 -16 29 -42 45 -59 17
-16 27 -33 23 -37 -4 -3 -2 -6 3 -5 19 4 38 0 32 -7 -15 -14 178 -93 236 -96
15 -1 27 -5 27 -8 0 -6 3 -7 70 -11 25 -2 50 -6 55 -9 16 -9 283 -11 297 -2 7
4 15 8 18 9 25 4 67 18 75 24 6 4 18 6 28 5 9 -2 15 1 11 6 -5 8 9 13 29 10 4
0 7 3 7 9 0 5 16 12 35 16 19 3 35 10 35 14 0 4 10 6 23 6 12 -1 27 1 32 5 6
4 21 9 35 11 14 1 28 8 33 13 4 6 10 5 16 -4 6 -9 11 -10 15 -2 4 6 13 8 19 4
14 -9 19 -10 53 -12 14 0 23 -4 21 -8 -3 -5 5 -9 16 -9 54 -4 87 -10 87 -16 0
-3 8 -5 18 -3 9 1 22 0 27 -4 6 -3 21 -6 35 -7 14 -1 43 -5 65 -9 22 -4 51 -8
65 -9 14 -1 30 -4 35 -7 6 -4 26 -5 45 -4 19 1 41 -2 48 -8 8 -6 12 -6 12 2 0
7 5 9 11 6 6 -4 43 -9 82 -11 40 -2 72 -4 72 -5 0 -1 157 -10 235 -12 41 -1
81 -6 88 -10 6 -5 12 -4 12 2 0 10 25 9 36 -2 12 -12 26 -8 18 5 -5 7 -3 8 7
3 13 -9 35 -11 161 -16 36 -2 65 -6 63 -9 -2 -3 31 -6 72 -7 41 -1 81 -7 89
-13 8 -8 14 -8 14 -2 0 6 18 4 48 -5 26 -8 63 -17 82 -19 19 -3 37 -8 40 -12
3 -4 14 -8 25 -9 38 -5 54 -9 61 -16 4 -4 13 -7 19 -7 7 0 30 -8 51 -17 22 -9
42 -16 47 -15 4 1 7 -2 7 -8 0 -5 7 -10 15 -10 8 0 15 -5 15 -11 0 -5 5 -7 10
-4 6 3 10 1 10 -4 0 -6 7 -11 15 -11 8 0 15 -4 15 -10 0 -5 7 -10 16 -10 8 0
13 -3 11 -7 -3 -5 1 -14 9 -21 8 -7 14 -9 14 -5 1 4 10 -8 20 -27 37 -68 51
-101 45 -110 -4 -6 -1 -10 5 -10 7 0 10 -7 7 -15 -4 -8 -3 -16 1 -19 19 -12 0
-266 -20 -266 -5 0 -7 -4 -4 -8 9 -14 -33 -94 -45 -86 -7 4 -9 3 -5 -4 8 -13
-28 -75 -37 -65 -4 3 -7 1 -7 -6 0 -19 -28 -43 -41 -35 -7 4 -9 3 -6 -3 3 -5
-15 -27 -40 -49 -25 -21 -55 -48 -65 -58 -10 -11 -18 -16 -18 -11 0 4 -11 -4
-25 -19 -13 -14 -27 -26 -30 -26 -3 0 -13 -8 -23 -17 -28 -27 -62 -53 -67 -53
-3 0 -19 -12 -36 -27 -17 -16 -34 -28 -38 -28 -7 0 -35 -22 -58 -47 -9 -9 -20
-15 -25 -12 -4 3 -8 0 -8 -5 0 -6 -7 -11 -16 -11 -8 0 -13 -4 -10 -9 7 -11
-22 -23 -35 -16 -5 4 -6 -2 -2 -11 4 -11 3 -15 -5 -10 -6 3 -19 -2 -29 -12
-10 -10 -34 -29 -53 -42 -19 -14 -40 -31 -47 -40 -6 -8 -14 -12 -18 -8 -4 4
-17 -4 -30 -18 -12 -13 -27 -24 -33 -24 -6 0 -12 -3 -14 -7 -5 -13 -86 -73
-97 -73 -6 0 -11 -4 -11 -10 0 -5 -5 -10 -11 -10 -7 0 -19 -8 -28 -18 -9 -10
-36 -32 -61 -49 -25 -18 -60 -45 -79 -62 -19 -16 -39 -27 -44 -24 -6 3 -7 1
-3 -5 4 -7 3 -12 -2 -12 -4 0 -18 -9 -30 -20 -12 -12 -22 -18 -22 -15 0 3 -10
-3 -22 -15 -12 -11 -28 -20 -35 -20 -7 0 -13 -5 -13 -11 0 -5 -4 -7 -10 -4 -5
3 -10 2 -10 -2 0 -5 -17 -17 -37 -28 -52 -27 -146 -88 -155 -100 -4 -5 -8 -7
-8 -3 0 4 -13 -6 -28 -22 -16 -16 -32 -27 -35 -23 -4 3 -7 -1 -7 -11 0 -9 -4
-15 -9 -11 -5 3 -12 -4 -16 -15 -3 -11 -10 -20 -15 -20 -5 0 -12 -9 -15 -20
-4 -11 -11 -17 -17 -14 -6 4 -8 2 -4 -4 3 -6 1 -14 -5 -17 -5 -4 -8 -13 -5
-21 3 -8 1 -14 -5 -14 -6 0 -8 -4 -4 -9 3 -5 1 -12 -3 -15 -5 -3 -8 -15 -7
-28 1 -13 -2 -29 -8 -35 -5 -7 -5 -13 0 -13 5 0 9 -9 9 -20 0 -11 -3 -20 -7
-20 -13 0 0 -128 15 -159 17 -32 97 -114 104 -106 2 2 13 -5 25 -15 11 -11 24
-17 29 -14 4 3 8 0 8 -6 0 -6 5 -8 10 -5 6 3 10 1 10 -6 0 -7 3 -9 6 -6 4 3
16 1 28 -5 11 -7 24 -13 29 -14 4 -1 10 -3 15 -4 4 -1 10 -2 15 -1 4 0 7 -3 7
-9 0 -5 7 -7 15 -4 8 4 15 1 15 -5 0 -6 7 -8 15 -5 8 4 15 1 15 -6 0 -6 3 -9
8 -7 4 3 18 0 32 -6 14 -5 30 -11 35 -13 6 -1 27 -9 47 -18 21 -9 40 -16 43
-16 3 0 26 -11 50 -25 25 -14 52 -25 60 -25 8 0 15 -4 15 -10 0 -5 9 -10 21
-10 11 0 18 -4 15 -8 -2 -4 5 -9 16 -9 11 -1 28 -9 37 -17 9 -8 25 -16 36 -18
11 -1 28 -12 38 -22 9 -10 17 -15 17 -11 0 4 8 1 18 -8 9 -8 20 -15 23 -14 4
1 26 -10 49 -25 23 -16 46 -28 51 -28 5 0 9 -5 9 -10 0 -6 8 -10 18 -8 10 2
16 -2 14 -10 -1 -8 2 -11 7 -8 5 4 16 -1 24 -9 9 -8 22 -15 29 -15 8 0 24 -9
36 -20 12 -11 26 -20 32 -20 5 0 10 -4 10 -10 0 -5 8 -10 19 -10 22 0 44 -23
33 -35 -4 -5 -2 -5 5 -1 14 8 76 -21 69 -32 -3 -4 5 -9 16 -9 11 -1 28 -9 37
-17 9 -8 20 -16 26 -18 5 -2 9 -7 7 -11 -1 -5 2 -6 7 -3 5 4 12 2 16 -4 4 -6
10 -8 15 -5 5 3 12 -1 17 -9 4 -8 10 -15 13 -15 16 0 39 -14 34 -22 -3 -5 2
-6 10 -3 10 4 16 1 16 -7 0 -7 3 -9 6 -6 4 4 19 -2 34 -13 15 -11 30 -17 34
-13 3 3 6 2 6 -3 0 -6 27 -25 60 -44 33 -19 60 -37 60 -42 0 -4 6 -5 13 -2 7
2 21 -4 31 -15 10 -11 23 -18 27 -15 5 3 9 0 9 -5 0 -6 7 -11 15 -11 8 0 15
-4 15 -8 0 -4 14 -16 30 -26 41 -24 86 -66 82 -78 -1 -5 2 -7 8 -3 5 3 13 -2
17 -12 4 -10 15 -25 25 -33 9 -8 20 -35 23 -60 9 -81 18 -194 19 -252 0 -32 4
-58 9 -58 14 0 17 -1 52 -16 19 -8 35 -11 35 -7 0 4 7 -2 16 -13 8 -10 13 -13
9 -6 -7 13 14 12 48 -3 10 -4 37 -9 60 -10 23 -1 42 -4 42 -5 0 -2 42 -3 93
-4 50 -1 92 2 92 7 0 4 4 6 8 3 7 -4 47 3 107 18 6 2 26 10 45 19 19 8 39 13
45 10 5 -4 7 -3 3 2 -8 8 44 55 61 55 6 0 11 4 11 10 0 5 16 25 35 44 19 20
35 39 35 43 0 5 9 15 19 23 11 7 18 17 15 22 -3 4 4 12 16 16 12 4 22 12 23
17 2 11 25 41 45 59 7 6 21 19 31 29 20 20 61 31 61 16 0 -5 3 -8 8 -7 24 6
103 -39 187 -107 63 -52 117 -83 158 -91 40 -8 209 -9 262 -2 52 7 157 38 173
50 6 6 12 7 12 3 0 -4 7 -2 15 5 8 6 18 9 24 6 5 -3 12 1 15 10 3 8 10 13 15
9 5 -3 12 -1 16 5 4 6 11 8 16 5 5 -4 9 -2 9 3 0 4 16 14 35 22 19 7 31 18 28
23 -3 6 -1 7 5 3 11 -7 51 11 64 29 5 7 8 7 8 0 0 -7 3 -7 8 0 10 15 49 35 67
35 8 0 15 4 15 9 0 9 25 21 43 21 4 -1 15 6 23 15 9 8 22 15 30 15 8 0 14 5
14 11 0 5 4 8 8 5 5 -3 22 2 38 10 69 37 137 39 301 10 7 -1 16 -5 19 -9 4 -4
20 -7 36 -7 15 0 28 -4 28 -8 0 -4 8 -9 18 -10 18 -2 53 -9 62 -12 3 -1 8 -2
13 -1 4 0 7 -3 7 -8 0 -5 6 -8 13 -8 24 1 98 -16 103 -24 3 -5 9 -7 14 -4 5 3
18 1 29 -5 14 -7 22 -7 27 1 4 7 9 8 13 1 7 -12 92 -19 108 -9 6 4 14 3 18 -3
4 -6 11 -7 17 -4 6 4 27 8 47 9 20 2 47 6 61 10 14 4 33 8 43 8 9 1 17 5 17 9
0 4 9 8 20 8 11 0 20 4 20 8 0 4 9 8 20 9 11 1 27 9 36 17 8 9 21 16 28 16 7
0 25 9 40 21 14 11 26 17 26 12 0 -4 4 -3 8 2 4 6 23 21 42 35 42 29 55 39 81
63 11 10 25 15 32 11 7 -4 9 -4 5 1 -4 4 2 17 15 27 12 11 32 28 45 39 12 10
22 17 22 14 0 -2 17 11 37 30 20 19 42 31 47 28 6 -4 8 -3 4 2 -8 9 42 52 55
47 5 -1 6 2 2 7 -3 6 5 15 17 22 24 12 174 143 194 168 7 8 16 11 24 6 9 -6
11 -4 6 4 -5 8 7 27 31 50 48 46 147 159 152 174 2 6 18 29 35 52 17 23 38 52
46 65 8 12 21 29 28 36 7 8 11 14 7 14 -3 0 3 10 15 22 11 12 20 28 20 35 0 7
4 13 9 13 5 0 14 13 20 28 7 15 22 39 34 53 13 13 24 27 25 32 3 13 125 192
136 199 6 4 8 8 4 8 -8 0 12 27 44 61 9 9 14 20 10 23 -3 3 0 6 7 6 7 0 9 5 6
10 -3 6 -2 10 3 10 5 0 15 11 22 25 7 13 18 21 24 18 6 -3 8 -3 4 2 -7 7 22
51 70 107 13 14 23 29 23 33 -1 3 11 16 26 29 16 13 35 36 43 50 8 16 19 25
27 21 8 -2 11 0 8 5 -3 5 10 26 30 45 19 20 35 40 35 46 0 6 5 7 10 4 6 -3 10
-3 10 2 0 16 66 78 103 98 20 11 37 23 37 28 0 4 5 5 10 2 6 -4 16 -2 23 3 33
26 228 49 255 29 8 -6 12 -5 12 2 0 7 4 9 10 6 9 -6 36 -10 125 -21 79 -9 100
-12 100 -14 0 -3 42 -10 78 -11 20 -1 37 -6 37 -10 0 -4 9 -5 19 -2 15 4 19 0
16 -14 -2 -10 -4 -18 -5 -18 -1 0 -3 -11 -6 -24 -2 -14 -8 -29 -13 -35 -5 -6
-7 -19 -6 -28 2 -10 -1 -18 -6 -18 -5 0 -9 -9 -9 -19 0 -11 -5 -23 -10 -26 -6
-4 -8 -11 -5 -16 4 -5 1 -9 -6 -9 -7 0 -10 -3 -6 -6 3 -4 0 -19 -9 -35 -8 -16
-12 -29 -9 -29 4 0 -2 -12 -13 -27 -10 -16 -17 -34 -15 -40 3 -7 0 -13 -6 -13
-6 0 -11 -9 -11 -21 0 -13 -4 -18 -12 -13 -8 5 -9 2 -5 -9 3 -9 -1 -31 -10
-49 -30 -61 -33 -68 -33 -83 0 -8 -5 -15 -11 -15 -6 0 -9 -6 -6 -14 3 -7 0
-19 -6 -25 -6 -6 -7 -11 -2 -11 4 0 0 -8 -9 -19 -9 -10 -16 -22 -14 -27 1 -5
-3 -31 -10 -59 -7 -27 -15 -61 -18 -75 -4 -14 -8 -68 -10 -120 -2 -52 -4 -95
-4 -95 -1 0 -2 -24 -3 -53 -1 -29 2 -52 8 -52 6 0 4 -4 -4 -9 -7 -5 -10 -14
-7 -20 4 -6 2 -11 -4 -11 -7 0 -8 -6 -1 -17 5 -10 5 -26 0 -41 -5 -13 -5 -21
-1 -18 4 2 9 -23 11 -57 3 -75 6 -96 16 -120 4 -10 5 -21 1 -24 -3 -3 2 -12
12 -19 11 -9 12 -13 4 -14 -9 0 -9 -6 3 -23 8 -13 12 -27 8 -30 -3 -4 -1 -7 5
-7 7 0 12 -7 12 -15 0 -7 8 -18 17 -24 10 -5 15 -12 11 -16 -6 -6 -1 -13 80
-97 36 -38 131 -98 167 -104 5 -1 39 -8 75 -16 97 -20 214 -14 319 18 25 7 47
11 49 9 3 -2 11 3 19 11 8 8 19 12 24 9 5 -4 9 -1 9 4 0 6 3 10 8 9 4 -1 17 3
30 10 12 7 22 10 22 7 0 -3 9 4 20 15 12 12 25 18 30 15 5 -3 7 1 4 9 -4 9 0
18 9 22 19 7 60 82 52 95 -4 5 -2 9 2 9 8 0 14 36 17 108 0 17 4 32 9 32 4 0
3 8 -2 18 -6 10 -6 24 -1 32 11 18 -19 40 -52 39 -12 0 -34 2 -48 5 -36 9
-137 19 -197 20 -29 1 -53 3 -53 6 0 3 -21 5 -47 5 -90 0 -136 9 -139 28 -1 9
1 17 5 17 5 0 6 11 3 25 -2 14 0 25 6 25 6 0 8 9 5 20 -4 15 8 85 33 183 1 4
2 12 3 18 0 5 5 7 11 4 6 -3 7 1 4 10 -4 8 -1 22 6 30 7 8 9 15 5 15 -4 0 -2
7 5 15 7 8 10 15 6 15 -3 0 3 15 13 33 10 17 23 49 30 70 7 20 17 37 22 37 5
0 9 7 9 15 0 8 5 15 12 15 6 0 8 3 5 7 -4 3 3 22 15 42 36 62 73 116 81 119 4
2 7 10 7 18 0 8 7 17 15 20 8 4 12 10 9 15 -3 5 2 12 10 15 9 3 13 10 10 15
-3 5 -1 9 5 9 5 0 12 8 15 18 3 9 22 34 41 55 19 21 34 40 34 43 0 10 39 53
45 49 3 -3 4 -2 1 1 -4 7 69 101 90 116 5 4 6 8 2 8 -4 0 3 10 16 23 13 12 36
40 53 62 16 22 40 51 54 65 14 14 25 28 25 32 0 3 16 23 36 45 19 21 37 43 39
48 8 20 45 52 54 47 5 -3 6 0 3 5 -4 6 4 23 18 39 13 15 22 31 19 36 -3 4 -1
8 5 8 6 0 20 21 33 48 23 50 35 186 18 197 -6 4 -10 15 -10 26 0 10 -4 19 -9
19 -5 0 -13 9 -16 20 -3 11 -13 20 -21 20 -8 0 -12 5 -9 10 3 6 1 10 -5 10 -6
0 -8 5 -4 12 4 7 3 8 -4 4 -6 -3 -16 3 -22 14 -6 11 -15 18 -20 15 -5 -3 -11
4 -15 15 -3 11 -12 20 -18 20 -7 0 -19 9 -27 20 -8 11 -20 20 -27 20 -7 0 -13
3 -13 8 0 4 -8 12 -19 17 -10 6 -43 23 -72 40 -30 16 -58 29 -62 30 -4 0 -11
5 -15 10 -4 6 -18 12 -32 14 -14 1 -27 6 -30 10 -5 7 -25 12 -52 14 -10 1 -18
4 -18 7 0 3 -11 7 -26 8 -14 1 -34 6 -44 12 -12 6 -21 7 -25 0 -3 -5 -12 -7
-20 -4 -7 3 -34 -3 -59 -14 -24 -11 -48 -17 -52 -14 -4 4 -5 2 -1 -3 3 -6 -9
-17 -26 -25 -18 -8 -41 -22 -52 -32 -10 -10 -25 -16 -33 -13 -7 2 -11 1 -8 -4
3 -5 -5 -16 -19 -25 -14 -9 -25 -13 -25 -9 0 4 -6 -1 -13 -12 -8 -10 -19 -15
-26 -11 -7 5 -10 2 -9 -6 2 -7 -3 -12 -9 -10 -7 1 -13 -2 -13 -8 0 -5 -16 -17
-35 -26 -19 -9 -35 -21 -35 -27 0 -6 -3 -7 -6 -4 -4 3 -16 1 -28 -5 -11 -7
-24 -13 -28 -14 -5 -1 -9 -2 -10 -4 -2 -1 -12 -3 -23 -5 -11 -2 -21 -8 -23
-14 -2 -5 -10 -7 -17 -5 -8 3 -20 2 -27 -2 -17 -11 -48 -11 -70 -1 -10 4 -18
4 -18 -1 0 -4 -19 -7 -42 -6 -24 1 -43 3 -43 4 0 2 -23 5 -100 11 -22 1 -44 5
-50 8 -5 3 -28 6 -50 8 -22 2 -46 4 -52 5 -7 1 -13 4 -13 7 0 6 -28 8 -202 14
-60 2 -108 -1 -108 -5 0 -4 -7 -8 -15 -8 -8 0 -15 -4 -15 -9 0 -5 -8 -12 -18
-15 -10 -4 -34 -22 -53 -41 -18 -19 -40 -35 -47 -35 -7 0 -11 -4 -8 -8 3 -5
-13 -28 -34 -52 -22 -25 -40 -48 -40 -53 0 -4 -6 -5 -12 -1 -7 4 -10 4 -6 0 9
-10 -61 -112 -74 -108 -5 1 -7 -2 -3 -8 6 -10 -31 -69 -53 -83 -7 -5 -10 -12
-7 -18 4 -5 1 -9 -4 -9 -6 0 -11 -7 -11 -15 0 -8 -7 -15 -16 -15 -8 0 -13 -4
-10 -8 3 -5 -5 -20 -17 -33 -12 -13 -21 -26 -20 -29 1 -3 -7 -15 -17 -28 -11
-12 -20 -25 -20 -27 0 -6 -13 -24 -42 -55 -9 -10 -14 -20 -12 -23 2 -2 -2 -10
-11 -17 -8 -7 -15 -19 -15 -27 0 -8 -4 -12 -9 -9 -5 3 -11 -4 -14 -15 -3 -12
-10 -18 -17 -14 -6 3 -9 3 -8 -2 4 -17 -14 -53 -27 -53 -9 0 -12 -6 -9 -15 4
-8 2 -15 -4 -15 -5 0 -22 -19 -37 -42 -16 -24 -27 -43 -25 -43 2 0 -7 -12 -20
-26 -14 -14 -32 -35 -40 -48 -14 -21 -33 -47 -59 -77 -5 -7 -7 -15 -4 -18 4
-3 -1 -6 -11 -6 -9 0 -15 -4 -12 -8 3 -5 -8 -24 -25 -43 -16 -19 -29 -38 -29
-42 0 -5 -4 -5 -10 -2 -5 3 -10 0 -10 -7 0 -14 -20 -45 -52 -79 -10 -11 -18
-23 -18 -29 0 -5 -4 -10 -10 -10 -5 0 -10 -7 -10 -16 0 -8 -4 -12 -10 -9 -5 3
-10 1 -10 -5 0 -11 -4 -17 -42 -62 -13 -14 -29 -35 -37 -47 -8 -11 -18 -18
-23 -15 -4 3 -5 -2 -2 -10 4 -11 0 -16 -11 -16 -9 0 -14 -4 -10 -9 3 -5 -5
-17 -17 -25 -12 -9 -19 -16 -15 -16 4 0 -3 -11 -15 -25 -11 -13 -26 -22 -31
-18 -6 3 -7 1 -3 -5 4 -7 -5 -23 -20 -37 -15 -14 -23 -25 -19 -25 5 0 -3 -10
-17 -22 -13 -13 -39 -42 -57 -66 -18 -23 -38 -39 -43 -36 -6 4 -8 3 -5 -3 7
-11 -28 -53 -44 -53 -6 0 -8 -4 -4 -9 3 -5 1 -12 -5 -16 -6 -3 -13 2 -17 12
-3 10 -15 28 -25 39 -10 12 -20 31 -21 42 0 11 -6 20 -12 19 -5 -1 -8 5 -6 13
2 8 5 22 6 30 2 8 4 15 5 15 2 0 7 19 15 57 3 15 10 40 17 55 6 16 12 33 13
38 1 6 8 26 15 45 8 19 13 38 12 43 -1 4 2 7 8 7 5 0 10 5 10 11 0 16 31 81
49 103 13 16 14 18 1 11 -11 -6 -10 -3 3 12 9 11 17 25 17 31 0 7 5 12 11 12
5 0 8 4 5 9 -3 5 1 14 9 21 8 7 12 16 9 21 -3 5 0 9 5 9 6 0 11 7 11 15 0 8 5
15 11 15 5 0 7 5 4 10 -3 6 -1 10 4 10 6 0 11 6 11 13 0 8 9 24 20 37 11 13
20 29 20 37 0 7 5 13 10 13 6 0 10 5 10 10 0 6 8 23 19 38 10 15 32 50 49 77
17 28 36 56 42 63 6 6 8 12 5 12 -3 0 -1 6 5 13 25 29 70 103 70 115 0 7 4 10
10 7 6 -3 10 3 10 14 0 12 4 21 8 21 5 0 14 16 22 35 8 19 18 35 22 35 5 0 6
5 3 10 -3 6 -1 10 5 10 6 0 9 4 5 9 -3 6 3 14 12 20 10 6 14 11 10 11 -4 0 4
21 18 46 33 59 34 78 6 149 -6 17 -11 34 -10 38 0 5 -9 17 -21 27 -12 10 -20
20 -18 23 3 5 -69 87 -77 87 -3 0 -19 14 -37 30 -17 17 -36 30 -43 30 -7 0
-18 7 -25 15 -7 8 -16 12 -21 9 -5 -3 -9 2 -9 10 0 8 -6 13 -13 10 -7 -2 -23
5 -35 16 -12 11 -22 19 -22 16 0 -3 -20 2 -45 11 -25 8 -45 19 -45 23 0 5 -9
7 -20 5 -11 -2 -20 1 -20 6 0 6 -4 7 -10 4 -5 -3 -10 -2 -10 3 0 6 -9 8 -20 5
-11 -3 -20 -1 -20 4 0 5 -29 9 -65 8 -36 0 -65 -3 -65 -7 0 -3 -11 -5 -25 -3
-14 1 -28 -2 -31 -7 -3 -4 -10 -6 -15 -3 -5 4 -9 2 -9 -4 0 -5 -8 -8 -17 -7
-10 2 -27 -3 -38 -10 -11 -7 -23 -13 -27 -14 -5 0 -10 -1 -13 -1 -3 -1 -8 -2
-12 -3 -18 -4 -142 -71 -180 -97 -23 -16 -44 -29 -48 -29 -3 0 -15 -9 -27 -20
-12 -11 -28 -20 -35 -20 -7 0 -13 -4 -13 -8 0 -4 -22 -21 -50 -37 -27 -17 -50
-34 -50 -39 0 -4 -7 -6 -15 -2 -8 3 -14 0 -12 -7 1 -7 -4 -11 -10 -10 -7 2
-13 -2 -13 -8 0 -5 -4 -8 -9 -5 -5 3 -12 -1 -15 -10 -3 -8 -10 -12 -16 -9 -5
3 -10 2 -10 -4 0 -6 -11 -13 -25 -17 -14 -3 -25 -9 -25 -13 0 -7 -61 -34 -72
-32 -5 0 -8 -4 -8 -11 0 -6 -3 -8 -7 -5 -3 4 -11 3 -17 -2 -24 -20 -99 -39
-135 -35 -53 6 -143 39 -133 49 4 4 1 5 -5 1 -7 -4 -19 -4 -25 1 -7 4 -15 8
-18 9 -37 11 -50 18 -50 25 0 5 -3 8 -8 6 -11 -3 -92 35 -92 44 0 5 -7 6 -15
3 -8 -4 -15 -1 -15 5 0 7 -8 11 -17 9 -11 -2 -17 2 -15 10 1 8 -2 11 -8 7 -5
-3 -24 0 -42 8 -72 31 -91 38 -96 33 -2 -3 -14 0 -26 6 -24 13 -54 17 -144 18
-59 1 -65 -1 -96 -33 -18 -19 -36 -42 -39 -51 -4 -10 -12 -14 -18 -10 -8 4 -9
3 -5 -5 4 -6 0 -14 -9 -17 -9 -4 -14 -13 -11 -20 3 -8 -1 -14 -10 -14 -8 0
-13 -4 -9 -9 3 -5 -5 -17 -17 -25 -12 -9 -19 -16 -15 -16 9 0 -51 -91 -67
-102 -6 -4 -7 -8 -2 -8 5 0 2 -8 -7 -18 -10 -10 -14 -22 -10 -25 3 -4 2 -7 -3
-7 -5 0 -18 -17 -29 -37 -11 -21 -22 -40 -25 -43 -3 -3 -11 -16 -18 -30 -38
-78 -92 -165 -101 -163 -6 2 -8 -4 -5 -12 4 -8 1 -15 -6 -15 -6 0 -10 -6 -8
-12 3 -7 -6 -24 -19 -38 -13 -14 -23 -33 -23 -43 0 -10 -4 -16 -9 -13 -5 3
-14 -8 -20 -24 -5 -17 -17 -33 -25 -36 -9 -3 -14 -10 -11 -14 3 -4 -2 -10 -10
-14 -8 -3 -15 -10 -15 -16 0 -6 -4 -16 -10 -23 -56 -67 -90 -113 -90 -120 0
-5 -7 -6 -16 -3 -8 3 -12 2 -9 -4 8 -13 -19 -52 -29 -42 -4 4 -6 2 -5 -3 5
-16 -52 -95 -64 -88 -5 3 -7 2 -4 -4 8 -12 -37 -76 -46 -66 -4 3 -7 -1 -7 -11
0 -9 -7 -19 -15 -22 -8 -4 -12 -10 -9 -15 3 -5 -2 -12 -10 -15 -9 -3 -16 -10
-16 -16 0 -5 -16 -26 -35 -46 -19 -20 -35 -41 -35 -45 0 -4 -19 -26 -42 -47
-23 -22 -38 -40 -34 -40 4 0 -31 -37 -77 -82 -85 -85 -157 -150 -157 -142 0 2
-9 -5 -20 -16 -18 -18 -49 -24 -120 -22 -17 0 -75 9 -75 12 0 1 -11 4 -25 6
-14 3 -27 9 -28 14 -2 6 -8 8 -13 4 -5 -3 -9 0 -9 5 0 6 -3 10 -7 9 -14 -4
-105 41 -99 50 2 4 -5 9 -17 9 -12 1 -28 10 -35 20 -7 10 -15 17 -18 15 -8 -5
-64 28 -64 38 0 5 -7 6 -17 3 -11 -4 -14 -3 -9 5 4 7 1 12 -9 12 -9 0 -36 14
-60 30 -24 17 -48 30 -54 30 -6 0 -11 5 -11 11 0 5 -4 7 -10 4 -5 -3 -10 -1
-10 5 0 6 -4 9 -9 6 -5 -3 -11 1 -15 9 -3 8 -12 12 -21 9 -8 -3 -15 -1 -15 5
0 6 -6 11 -14 11 -8 0 -16 3 -18 8 -1 4 -34 23 -73 42 -38 19 -71 38 -73 43
-2 4 -12 7 -23 7 -10 0 -19 4 -19 9 0 5 -11 12 -25 15 -14 4 -23 11 -19 17 3
6 0 9 -7 8 -17 -3 -89 32 -89 43 0 4 -5 8 -11 8 -14 0 -80 46 -74 51 2 3 -5 6
-16 6 -11 1 -29 11 -39 22 -9 12 -21 21 -26 21 -5 0 -16 9 -24 20 -8 11 -19
20 -26 20 -6 0 -16 10 -22 23 -6 13 -11 16 -11 7 -1 -10 -6 -7 -17 8 -15 22
-15 24 2 37 11 8 23 15 27 15 5 0 5 5 2 10 -3 6 -3 10 2 10 4 0 30 20 58 44
27 24 53 42 56 40 4 -2 9 3 13 11 3 8 10 15 16 15 6 0 18 7 27 15 8 8 19 12
25 9 6 -4 8 -2 5 3 -7 10 20 28 36 25 4 -1 7 3 7 9 0 5 5 7 10 4 6 -3 13 1 16
9 3 9 10 13 15 10 5 -3 9 0 9 5 0 6 7 11 15 11 8 0 15 4 15 9 0 8 19 16 43 19
5 0 17 11 28 23 10 12 19 17 19 11 0 -7 9 -3 20 8 11 11 27 20 36 20 9 0 12 5
8 12 -5 7 -2 9 8 6 8 -4 21 2 29 13 7 10 18 19 23 19 11 0 81 46 110 72 10 10
24 15 29 11 6 -3 7 -1 3 5 -4 7 -3 12 2 12 6 0 34 20 63 44 30 25 58 42 63 39
5 -4 6 -1 2 5 -4 7 -3 12 1 12 5 0 25 15 45 33 20 17 57 50 83 72 26 22 61 55
78 72 16 18 38 35 48 38 11 4 19 13 19 21 0 8 4 14 8 14 18 0 312 284 312 301
0 6 3 8 8 6 8 -5 27 13 29 28 1 5 10 12 20 16 10 4 14 8 10 8 -4 1 4 13 18 28
14 15 25 31 25 36 0 4 5 5 12 1 6 -4 8 -3 5 3 -4 6 5 20 18 33 13 13 22 28 18
33 -4 6 0 8 10 4 9 -3 16 -3 15 1 -3 12 13 52 22 52 4 0 10 9 13 21 4 13 10
18 18 13 8 -4 10 -3 5 5 -4 6 1 23 11 39 40 58 112 235 116 282 1 11 4 20 7
20 3 0 7 10 8 23 1 12 4 40 7 62 10 69 11 149 3 179 -4 16 -8 46 -10 68 -1 22
-6 42 -10 44 -4 3 -8 13 -8 23 0 23 -41 124 -53 132 -5 4 -6 12 -3 18 4 6 3
11 -1 11 -5 0 -17 17 -28 38 -11 20 -28 43 -37 50 -10 7 -18 17 -18 21 0 10
-118 131 -126 131 -3 0 -19 14 -34 30 -15 17 -31 30 -34 30 -6 0 -35 23 -60
46 -17 16 -60 39 -68 36 -5 -1 -8 5 -8 14 0 8 -5 12 -11 9 -5 -4 -18 3 -29 15
-10 12 -20 21 -22 21 -10 -3 -68 25 -68 32 0 4 -4 5 -10 2 -5 -3 -10 -1 -10 4
0 6 -4 11 -10 11 -8 0 -67 25 -145 62 -12 5 -27 10 -35 12 -15 3 -23 6 -65 22
-11 4 -22 8 -25 8 -3 1 -9 4 -15 7 -5 4 -18 5 -27 4 -10 -2 -18 0 -18 4 0 4
-6 8 -12 9 -62 8 -86 14 -122 33 -14 8 -16 8 -10 -3 6 -10 5 -11 -7 -2 -8 7
-34 15 -59 20 -50 9 -58 10 -65 14 -3 1 -13 3 -22 5 -10 1 -34 5 -53 9 -19 4
-49 8 -65 9 -17 2 -35 5 -40 9 -6 3 -26 5 -45 5 -20 -1 -41 2 -48 7 -7 4 -12
2 -12 -6 0 -8 -3 -9 -8 -3 -4 6 -14 10 -22 10 -8 -1 -19 1 -24 3 -17 9 -86 8
-86 -1 0 -5 -6 -5 -13 1 -7 6 -25 9 -40 8 -15 -2 -29 -1 -31 3 -2 3 -143 5
-313 3 -466 -4 -523 -6 -523 -15 0 -4 -5 -5 -11 -2 -16 10 -149 12 -149 3 0
-5 -5 -6 -11 -2 -6 3 -60 8 -120 9 -60 1 -111 4 -113 6 -5 6 -38 132 -38 149
0 8 -5 21 -11 28 -6 8 -5 12 4 12 9 0 10 3 3 8 -6 4 -21 42 -35 84 -13 42 -27
74 -31 72 -4 -3 -8 2 -8 10 0 8 -7 22 -16 30 -8 9 -12 16 -8 16 4 0 -9 13 -29
29 -20 15 -33 32 -29 35 4 4 2 6 -3 5 -14 -5 -75 24 -75 35 0 4 -7 6 -15 2 -8
-3 -19 2 -24 12 -6 9 -11 14 -11 9 0 -4 -13 -1 -30 8 -16 9 -30 13 -30 10 0
-3 -17 3 -37 14 -38 19 -44 21 -64 21 -5 0 -8 3 -6 8 5 6 -16 11 -70 15 -11 1
-19 5 -17 9 6 10 -42 22 -55 13 -6 -3 -11 -2 -11 4 0 5 -9 8 -20 6 -11 -2 -20
0 -20 4 0 4 -6 8 -12 8 -41 3 -98 12 -106 17 -6 3 -14 1 -17 -4 -5 -7 -11 -6
-19 5 -6 9 -15 13 -19 9z m5525 -3204 c5 0 6 -5 2 -12 -4 -6 -3 -8 3 -5 6 4
22 -3 37 -14 14 -11 26 -17 26 -13 0 4 8 -3 19 -14 10 -12 21 -19 25 -15 3 3
6 2 6 -4 0 -6 14 -16 30 -22 17 -5 30 -14 30 -19 0 -5 14 -15 30 -22 17 -7 30
-16 30 -21 0 -5 9 -9 19 -9 10 0 21 -7 25 -15 3 -8 12 -15 21 -15 8 0 15 -4
15 -8 0 -5 12 -15 28 -23 15 -8 38 -25 51 -39 13 -14 20 -19 16 -11 -5 9 1 7
18 -5 39 -29 50 -56 42 -103 -4 -22 -11 -41 -16 -41 -6 0 -8 -4 -4 -9 3 -6 -1
-13 -9 -18 -8 -4 -16 -12 -17 -18 -4 -21 -24 -60 -34 -67 -5 -4 -6 -8 -1 -8 5
0 0 -8 -10 -17 -10 -10 -20 -25 -22 -33 -2 -8 -8 -16 -13 -18 -5 -2 -9 -10 -9
-18 0 -14 -19 -54 -31 -64 -3 -3 -16 -27 -29 -55 -13 -27 -28 -53 -34 -57 -6
-4 -7 -8 -2 -8 5 0 2 -8 -7 -18 -10 -10 -14 -22 -10 -25 3 -4 0 -7 -7 -7 -7 0
-11 -3 -7 -6 3 -4 -7 -26 -24 -50 -16 -24 -26 -44 -22 -44 4 0 3 -4 -2 -8 -6
-4 -23 -27 -39 -51 -31 -49 -35 -54 -83 -107 -18 -19 -33 -40 -33 -45 0 -5 -3
-8 -7 -7 -5 2 -21 -9 -38 -24 -34 -30 -103 -78 -112 -78 -3 0 -21 -11 -40 -26
-18 -14 -33 -21 -33 -17 0 4 -5 0 -11 -9 -5 -10 -15 -18 -21 -18 -6 0 -26 -11
-45 -26 -18 -14 -33 -21 -33 -17 0 4 -5 0 -11 -9 -5 -10 -17 -18 -24 -18 -8 0
-15 -5 -15 -11 0 -5 -4 -7 -10 -4 -5 3 -10 2 -10 -4 0 -10 -39 -27 -53 -23 -5
1 -6 -2 -3 -7 4 -5 -10 -15 -29 -22 -19 -7 -35 -17 -35 -22 0 -4 -4 -6 -9 -2
-5 3 -16 -2 -25 -10 -8 -8 -19 -15 -23 -14 -4 1 -24 -5 -43 -13 -73 -31 -86
-36 -125 -41 -12 -2 -27 -7 -34 -12 -10 -6 -12 -4 -6 6 7 11 6 12 -6 2 -12 -9
-57 -17 -82 -14 -4 1 -3 11 4 22 8 15 8 19 0 15 -7 -5 -11 2 -12 16 0 13 -3
32 -5 43 -9 38 -15 80 -17 130 -2 28 -6 55 -9 61 -4 5 -3 16 2 24 5 9 5 19 -2
27 -6 7 -6 13 -1 13 5 0 10 12 10 28 1 85 4 103 14 96 8 -5 8 -1 0 13 -6 11
-7 23 -4 27 7 6 8 12 16 48 2 10 6 20 9 24 4 3 4 12 1 20 -3 8 0 14 6 14 6 0
8 7 5 15 -4 8 -1 15 5 15 6 0 11 8 11 18 0 10 3 22 8 26 4 4 7 11 7 14 1 12
37 76 53 95 8 9 11 17 7 17 -4 0 4 11 19 25 14 13 26 27 26 30 0 3 17 24 38
46 20 23 37 44 37 47 0 3 17 23 38 43 20 21 37 42 37 46 0 5 8 16 18 24 23 21
62 67 63 77 1 4 21 26 45 50 24 23 41 42 37 42 -4 0 10 17 30 38 21 21 34 42
30 47 -5 4 -3 6 2 3 9 -4 51 33 57 50 4 10 37 49 81 94 20 21 34 38 31 38 -6
0 10 17 98 107 30 31 31 31 51 12 11 -10 25 -19 29 -19z"/>
<path d="M19278 13364 c-4 -3 -29 -8 -55 -9 -26 -2 -48 -4 -48 -5 0 -1 -27 -3
-60 -6 -85 -6 -160 -12 -160 -14 0 -1 -18 -3 -40 -5 -88 -7 -222 -18 -260 -20
-22 -2 -42 -4 -45 -5 -3 -1 -9 -1 -15 0 -25 6 -61 5 -77 -2 -9 -5 -20 -4 -23
2 -4 7 -12 7 -25 0 -10 -6 -30 -11 -44 -12 -15 -1 -26 -6 -26 -10 0 -4 -9 -5
-19 -3 -11 2 -25 -3 -31 -10 -6 -8 -18 -11 -26 -8 -8 3 -14 0 -14 -7 0 -6 -3
-9 -8 -7 -4 3 -25 -3 -46 -14 -22 -10 -46 -19 -53 -19 -7 0 -13 -4 -13 -9 0
-5 -16 -15 -35 -22 -19 -7 -35 -17 -35 -21 0 -4 -6 -8 -14 -8 -8 0 -21 -6 -28
-13 -7 -7 -45 -33 -83 -58 -39 -26 -76 -54 -84 -63 -7 -8 -17 -13 -22 -10 -5
3 -9 -3 -9 -12 0 -10 -3 -15 -6 -11 -3 3 -18 -5 -32 -18 -14 -13 -30 -21 -35
-18 -6 3 -7 1 -3 -5 4 -7 3 -12 -2 -12 -4 0 -21 -13 -38 -28 -53 -51 -111 -92
-119 -84 -5 4 -5 1 -1 -6 4 -7 1 -15 -9 -18 -9 -4 -30 -19 -47 -34 -54 -49
-68 -60 -68 -52 -1 4 -8 -2 -18 -13 -9 -11 -26 -27 -37 -35 -17 -13 -18 -13
-10 0 4 8 -4 2 -18 -13 -16 -17 -32 -25 -40 -21 -6 4 -9 4 -5 -1 7 -8 -39 -43
-54 -41 -3 1 -17 -8 -30 -19 -26 -23 -119 -71 -130 -67 -5 1 -8 -2 -8 -8 0 -6
-3 -9 -7 -8 -5 1 -18 -3 -29 -10 -12 -6 -24 -8 -28 -5 -3 3 -6 1 -6 -6 0 -8
-6 -11 -16 -7 -8 3 -12 2 -9 -4 5 -9 -1 -12 -21 -9 -4 0 -10 -4 -13 -9 -3 -6
-13 -12 -21 -14 -8 -2 -20 -8 -28 -15 -7 -7 -19 -10 -28 -6 -9 3 -14 0 -12 -8
2 -8 -3 -13 -9 -11 -7 1 -13 -1 -13 -5 0 -5 -20 -17 -45 -28 -25 -11 -45 -23
-45 -28 0 -4 -5 -5 -10 -2 -6 3 -13 0 -16 -8 -5 -14 -49 -33 -66 -29 -5 1 -8
-2 -8 -7 0 -10 -42 -39 -62 -43 -12 -3 -18 -7 -52 -35 -7 -6 -17 -9 -20 -6 -3
4 -6 1 -6 -6 0 -8 -8 -11 -20 -8 -11 3 -18 0 -17 -6 1 -6 -8 -15 -19 -22 -12
-6 -28 -16 -36 -23 -8 -6 -18 -9 -21 -5 -4 3 -7 1 -7 -5 0 -7 -7 -12 -15 -12
-8 0 -15 -5 -15 -11 0 -6 -7 -8 -16 -5 -8 3 -13 2 -10 -3 3 -5 -8 -14 -24 -21
-17 -7 -30 -16 -30 -21 0 -5 -7 -9 -17 -9 -9 0 -31 -11 -48 -25 -18 -13 -35
-21 -39 -18 -3 4 -6 1 -6 -6 0 -7 -4 -10 -9 -6 -6 3 -14 -3 -20 -12 -6 -10
-11 -14 -11 -10 0 5 -7 1 -16 -7 -8 -9 -20 -14 -25 -11 -5 4 -9 2 -9 -4 0 -6
-11 -13 -25 -17 -13 -3 -29 -12 -36 -20 -6 -8 -15 -11 -20 -8 -5 3 -9 0 -9 -5
0 -6 -3 -10 -7 -9 -14 3 -63 -25 -63 -35 0 -6 -3 -7 -7 -4 -3 4 -12 2 -20 -4
-7 -6 -13 -8 -13 -5 0 4 -13 -2 -30 -14 -16 -12 -30 -18 -30 -14 0 3 -7 1 -15
-6 -8 -6 -20 -8 -26 -4 -7 4 -9 3 -6 -4 8 -11 -66 -28 -82 -18 -5 4 -12 2 -16
-4 -4 -7 -14 -6 -28 2 -12 7 -25 11 -29 10 -5 -1 -8 2 -8 6 0 5 -16 14 -35 22
-19 8 -35 17 -35 22 0 4 -3 7 -7 6 -13 -3 -63 25 -63 35 0 5 -9 7 -20 4 -11
-3 -18 -2 -15 2 6 11 -44 33 -57 25 -7 -4 -8 -2 -4 4 6 11 -6 16 -26 13 -5 0
-8 3 -8 8 0 5 -17 12 -37 17 -46 9 -313 12 -313 3 0 -3 -11 -5 -25 -4 -14 2
-25 0 -25 -4 0 -4 -12 -6 -27 -5 -16 1 -32 -2 -38 -5 -5 -4 -17 -7 -25 -6 -8
1 -29 -4 -47 -11 -17 -7 -34 -10 -37 -7 -3 3 -11 1 -18 -5 -7 -6 -16 -11 -20
-11 -5 -1 -9 -1 -10 -2 -2 0 -11 -2 -20 -5 -31 -7 -42 -11 -60 -18 -9 -4 -22
-9 -30 -10 -7 -2 -24 -8 -38 -13 -14 -6 -28 -9 -32 -6 -5 2 -8 -1 -8 -7 0 -7
-7 -10 -15 -6 -8 3 -15 1 -15 -4 0 -5 -12 -13 -27 -16 -16 -4 -37 -13 -49 -21
-11 -7 -24 -10 -27 -6 -4 3 -7 1 -7 -5 0 -7 -7 -12 -16 -12 -8 0 -35 -11 -59
-24 -24 -14 -46 -22 -49 -19 -3 4 -6 1 -6 -6 0 -7 -6 -11 -14 -8 -8 3 -17 -2
-21 -11 -5 -14 -7 -14 -15 -2 -7 10 -10 11 -10 3 0 -7 -21 -23 -47 -35 -27
-12 -51 -26 -54 -31 -4 -5 -12 -6 -18 -3 -6 4 -11 2 -11 -4 0 -6 -11 -15 -25
-20 -14 -5 -28 -16 -31 -24 -3 -9 -12 -12 -21 -9 -11 4 -14 2 -9 -5 4 -7 1
-12 -8 -12 -9 0 -16 -5 -16 -11 0 -5 -4 -8 -9 -5 -5 3 -12 -1 -15 -10 -4 -11
-14 -14 -27 -11 -16 4 -18 3 -8 -9 9 -11 7 -14 -10 -14 -12 0 -20 -4 -17 -8 2
-4 -8 -13 -23 -20 -15 -7 -37 -21 -49 -32 -12 -12 -22 -18 -22 -14 0 4 -11 -3
-25 -16 -14 -13 -25 -18 -25 -11 0 12 -6 9 -45 -27 -8 -7 -15 -11 -15 -8 0 3
-17 -1 -37 -9 -70 -27 -105 -26 -108 5 -2 14 -69 145 -77 148 -4 2 -8 12 -8
23 0 10 -4 19 -10 19 -5 0 -10 7 -10 15 0 8 -4 15 -10 15 -5 0 -10 5 -10 11 0
14 -47 59 -61 59 -6 0 -7 5 -4 10 5 9 -1 12 -21 9 -4 0 -10 5 -14 12 -5 7 -16
13 -27 14 -10 1 -25 5 -33 9 -9 3 -33 8 -55 9 -22 1 -45 5 -50 9 -6 4 -17 3
-25 -2 -8 -5 -21 -5 -31 0 -9 5 -19 7 -22 4 -5 -6 -41 -11 -114 -16 -18 -2
-33 -6 -33 -10 0 -4 -9 -5 -20 -3 -11 2 -20 -1 -20 -7 0 -6 -3 -9 -6 -5 -3 3
-23 -1 -45 -8 -22 -8 -41 -15 -44 -15 -2 -1 -14 -4 -25 -7 -11 -3 -20 -9 -20
-14 0 -5 -4 -8 -8 -6 -12 3 -82 -26 -82 -34 0 -4 -13 -10 -30 -14 -16 -4 -30
-11 -30 -17 0 -6 -7 -7 -16 -4 -8 3 -12 2 -9 -4 5 -9 -1 -12 -21 -9 -3 0 -11
-7 -18 -17 -8 -11 -18 -14 -26 -9 -9 5 -11 4 -6 -3 7 -11 -7 -17 -29 -12 -5 1
-7 -2 -3 -6 11 -11 -30 -36 -45 -28 -6 4 -9 3 -4 -1 7 -8 -116 -95 -135 -95
-5 0 -7 -4 -3 -9 5 -9 -32 -27 -48 -23 -4 1 -6 -3 -5 -9 2 -6 -6 -16 -16 -22
-11 -7 -27 -19 -36 -27 -10 -8 -30 -24 -45 -35 -14 -11 -40 -32 -55 -47 -16
-16 -34 -28 -40 -28 -5 0 -10 -4 -10 -10 0 -5 -4 -10 -9 -10 -5 0 -23 -12 -39
-27 -75 -69 -113 -98 -125 -95 -6 2 -9 1 -5 -3 7 -7 -13 -33 -28 -38 -4 -1
-25 -19 -46 -40 -21 -21 -38 -35 -38 -32 0 2 -13 -9 -29 -25 -15 -17 -33 -30
-38 -30 -6 0 -16 -7 -23 -15 -7 -8 -16 -12 -21 -9 -5 3 -9 1 -9 -3 0 -10 -79
-35 -119 -39 -14 -1 -26 -3 -26 -4 0 -1 -21 -3 -47 -4 -26 -1 -50 -5 -54 -8
-3 -4 -17 -3 -30 2 -13 5 -24 6 -24 2 0 -4 -33 -7 -73 -8 -152 -2 -201 -21
-162 -64 10 -11 14 -20 9 -20 -5 0 -4 -4 1 -8 17 -12 77 -104 63 -97 -7 4 -1
-4 14 -17 15 -14 24 -28 20 -32 -4 -4 1 -12 11 -17 9 -6 17 -17 17 -24 0 -8 3
-15 8 -15 4 0 16 -12 26 -27 13 -17 14 -24 5 -19 -8 4 -3 -2 11 -13 14 -11 21
-21 15 -21 -5 0 -4 -4 4 -9 8 -5 16 -15 18 -23 12 -53 18 -108 13 -124 -3 -11
-5 -43 -5 -71 0 -29 -2 -53 -5 -53 -3 0 -6 -17 -6 -37 -2 -67 -12 -182 -17
-190 -3 -5 -2 -15 3 -23 5 -8 5 -21 -1 -31 -5 -10 -5 -20 -1 -23 4 -2 9 -21
10 -42 2 -20 7 -45 12 -54 5 -10 7 -20 4 -23 -3 -3 0 -16 7 -29 7 -12 14 -25
14 -28 5 -30 77 -120 96 -120 6 0 7 -5 4 -10 -3 -6 1 -13 9 -16 9 -3 16 -13
16 -22 0 -8 3 -13 6 -10 3 4 21 -8 39 -25 48 -45 58 -53 85 -67 14 -7 31 -19
38 -27 8 -7 17 -11 22 -8 4 3 11 -2 14 -11 3 -8 10 -12 16 -9 5 3 10 1 10 -4
0 -6 6 -11 13 -11 7 0 32 -9 55 -20 24 -12 47 -18 52 -15 6 3 10 2 10 -3 0 -5
15 -13 33 -17 35 -9 46 -12 50 -14 1 -1 17 -4 36 -7 19 -2 40 -9 48 -15 9 -8
13 -8 13 -1 0 8 9 8 30 0 17 -5 39 -8 50 -5 11 3 22 1 25 -4 3 -4 11 -6 19 -3
7 3 24 0 38 -5 14 -5 29 -7 33 -3 10 10 105 9 105 -2 0 -5 6 -4 13 1 6 6 41
11 76 12 36 1 71 7 78 13 9 7 13 7 13 -1 0 -8 6 -9 18 -3 9 5 27 8 40 7 12 -1
22 2 22 7 0 5 5 6 10 3 6 -4 17 -1 25 5 12 10 15 10 15 -1 0 -12 2 -12 9 0 5
7 14 10 20 7 6 -4 11 -2 11 3 0 6 9 11 20 11 11 0 20 5 20 11 0 5 4 8 9 4 9
-5 133 107 132 119 -3 20 0 26 9 21 6 -4 10 -3 8 2 -1 4 4 26 10 47 6 22 9 43
6 48 -3 4 -1 8 4 8 5 0 8 11 7 25 -8 66 -18 105 -28 105 -5 0 -7 3 -4 7 4 3
-6 19 -22 34 -16 15 -27 30 -23 33 3 3 -4 6 -16 6 -12 0 -22 5 -22 11 0 5 -5
7 -10 4 -6 -4 -16 -2 -23 3 -7 5 -20 8 -29 7 -10 -2 -18 0 -18 3 0 4 -38 7
-85 7 -47 1 -85 -2 -85 -5 0 -3 -19 -6 -43 -7 -23 0 -62 -4 -87 -8 -25 -4 -52
-7 -60 -8 -8 0 -19 -2 -25 -6 -9 -5 -90 -6 -182 -2 -37 1 -113 67 -105 90 3 9
0 11 -8 6 -10 -6 -12 -4 -7 8 3 9 1 17 -4 19 -12 4 -17 118 -7 165 6 32 20 64
49 112 16 28 79 93 79 83 0 -4 4 -2 8 3 4 6 16 17 26 25 18 13 19 13 11 0 -8
-13 -6 -13 8 -1 9 7 34 15 54 18 21 3 41 10 45 17 5 7 8 6 8 -4 0 -9 3 -11 8
-5 4 6 25 10 47 10 22 0 44 2 50 4 5 3 25 6 45 6 35 2 120 12 175 22 17 3 44
6 60 8 17 1 31 4 33 5 1 1 7 4 12 5 6 1 13 4 18 5 4 1 15 2 25 1 9 -1 17 2 17
6 0 5 12 10 26 11 15 1 33 7 40 13 8 6 14 8 14 4 0 -4 7 -2 15 5 8 7 15 9 15
5 0 -4 7 -2 15 5 8 7 15 9 15 4 0 -5 5 -1 11 8 6 11 16 15 26 11 10 -4 14 -2
10 4 -6 10 40 38 56 35 4 -1 7 5 7 13 0 8 3 14 8 12 4 -1 17 8 30 21 12 12 28
20 34 16 6 -4 8 -3 5 2 -8 14 7 35 27 38 9 1 18 6 19 11 2 11 61 74 65 70 5
-4 72 67 72 76 0 9 15 13 33 10 5 -1 6 3 2 9 -3 5 -2 10 3 10 4 0 17 8 28 18
44 40 94 64 122 57 15 -3 35 -7 45 -8 9 -1 17 -5 17 -10 0 -5 9 -7 20 -4 11 3
20 1 20 -4 0 -5 9 -9 19 -9 11 0 22 -4 25 -9 5 -7 34 -16 86 -25 3 -1 11 -5
19 -10 11 -7 12 -6 6 5 -8 12 -6 12 8 0 9 -7 17 -10 17 -7 0 4 8 2 18 -3 11
-6 24 -6 36 1 14 8 17 8 11 -2 -5 -9 -3 -10 11 -3 11 5 26 9 34 8 8 0 18 4 22
10 5 6 8 4 8 -5 0 -12 2 -12 9 -2 4 7 15 14 23 16 8 1 27 10 42 19 15 10 30
15 35 13 5 -3 19 3 31 14 22 19 35 24 53 21 4 0 7 3 7 7 0 12 76 53 84 45 3
-3 6 -1 6 5 0 6 20 23 45 38 25 14 45 31 45 37 0 6 3 8 6 4 4 -3 12 -1 20 6
34 31 49 42 55 42 7 0 54 33 75 53 8 7 14 10 14 5 0 -4 5 0 11 10 5 9 17 17
24 17 8 0 15 5 15 11 0 5 14 15 30 20 17 6 30 15 30 21 0 5 4 7 9 4 5 -3 12 1
15 10 4 10 14 14 26 11 11 -3 18 -1 15 3 -3 5 4 11 15 15 11 3 20 11 20 17 0
6 3 8 6 5 4 -4 19 2 34 13 15 11 30 17 33 13 4 -3 13 0 22 7 12 10 20 9 40 -4
13 -9 31 -16 38 -16 8 0 20 -7 27 -15 8 -10 9 -15 2 -15 -7 0 -9 -8 -5 -17 3
-10 3 -15 -2 -11 -8 8 -45 -33 -45 -50 0 -5 -7 -12 -15 -16 -8 -3 -15 -10 -15
-15 0 -19 -151 -166 -167 -163 -8 2 -12 -1 -9 -7 4 -5 -5 -18 -19 -28 -14 -10
-35 -26 -48 -36 -12 -10 -34 -26 -49 -35 -16 -9 -28 -20 -28 -24 0 -4 -9 -8
-20 -8 -11 0 -20 -4 -20 -9 0 -5 -13 -14 -30 -21 -16 -7 -30 -17 -30 -22 0 -6
-6 -8 -14 -5 -8 3 -16 0 -19 -6 -2 -7 -22 -18 -43 -26 -22 -8 -42 -18 -45 -22
-3 -5 -17 -10 -31 -11 -15 -1 -24 -6 -22 -10 5 -7 -10 -12 -28 -9 -5 0 -8 -3
-8 -8 0 -7 -33 -21 -48 -20 -1 0 -10 -7 -18 -16 -9 -8 -19 -13 -24 -10 -5 3
-10 2 -12 -2 -3 -9 -84 -63 -93 -63 -4 0 -13 -6 -20 -12 -34 -30 -45 -38 -45
-32 0 4 -8 -3 -19 -14 -10 -12 -22 -22 -27 -22 -5 0 -20 -12 -33 -25 -12 -14
-28 -22 -34 -18 -6 3 -7 1 -3 -5 3 -6 -5 -19 -20 -29 -14 -10 -37 -31 -52 -46
-14 -15 -32 -25 -39 -22 -8 3 -11 0 -7 -6 6 -11 -35 -56 -48 -52 -5 2 -8 -4
-8 -13 0 -10 -6 -14 -14 -11 -9 4 -13 1 -11 -6 3 -7 -24 -42 -60 -79 -35 -38
-62 -68 -58 -68 3 0 -9 -13 -27 -30 -19 -18 -29 -34 -24 -42 4 -7 4 -10 0 -6
-10 8 -42 -24 -51 -51 -3 -12 -9 -19 -13 -17 -4 2 -13 -2 -20 -10 -7 -8 -10
-14 -6 -14 3 0 1 -6 -5 -14 -13 -15 -22 -109 -14 -148 5 -28 49 -83 66 -83 7
-1 11 -6 10 -13 -2 -6 3 -9 11 -6 8 3 17 1 21 -5 4 -8 12 -8 26 -1 10 6 19 7
19 2 0 -5 11 -8 25 -7 14 2 25 0 25 -4 0 -5 18 -6 40 -4 25 3 40 0 40 -7 0 -6
4 -9 9 -6 5 3 73 6 152 7 91 1 147 6 151 13 5 7 8 7 8 -2 0 -7 5 -10 10 -7 6
3 10 0 10 -7 0 -9 3 -9 10 2 5 8 10 12 10 8 0 -4 11 -4 23 1 13 5 30 5 37 1 8
-5 19 -5 26 1 7 6 15 6 17 2 6 -10 48 -10 65 0 8 6 10 -10 7 -55 -2 -35 -4
-63 -5 -63 -2 0 -4 -12 -14 -65 -4 -19 -8 -41 -8 -47 -1 -7 -5 -13 -10 -13 -5
0 -7 -4 -4 -9 7 -11 -29 -118 -46 -139 -11 -13 -11 -14 2 -7 12 7 11 3 -3 -18
-9 -15 -14 -27 -10 -27 5 0 3 -4 -3 -8 -11 -8 -54 -96 -54 -112 0 -5 -4 -10
-10 -10 -5 0 -10 -7 -10 -15 0 -8 -5 -15 -11 -15 -5 0 -7 -5 -4 -10 3 -6 -1
-17 -10 -26 -9 -9 -14 -23 -11 -30 3 -8 1 -14 -4 -14 -5 0 -15 -12 -23 -27
-37 -71 -45 -82 -52 -75 -5 4 -5 1 -1 -6 5 -7 2 -21 -6 -30 -8 -9 -20 -32 -28
-49 -7 -18 -16 -33 -21 -33 -5 0 -9 -7 -9 -16 0 -8 -4 -12 -10 -9 -5 3 -7 0
-4 -8 3 -8 0 -18 -5 -22 -6 -3 -9 -11 -6 -16 4 -5 1 -9 -4 -9 -6 0 -11 -7 -11
-15 0 -7 -8 -19 -17 -24 -10 -6 -14 -11 -10 -11 5 0 0 -12 -10 -27 -10 -16
-25 -40 -33 -55 -7 -16 -17 -28 -22 -28 -4 0 -8 -6 -8 -14 0 -7 -10 -21 -22
-30 -13 -9 -16 -14 -8 -10 13 7 13 6 0 -12 -8 -10 -26 -30 -40 -43 -14 -13
-18 -20 -10 -16 14 8 -25 -42 -45 -57 -5 -4 -6 -8 -2 -8 4 0 -10 -18 -33 -41
-22 -22 -40 -45 -40 -50 0 -6 -4 -8 -9 -4 -5 3 -13 -4 -16 -16 -4 -11 -9 -18
-12 -15 -3 3 -20 -9 -37 -27 -46 -47 -94 -79 -108 -71 -7 5 -9 2 -5 -9 4 -12
-3 -19 -29 -27 -18 -6 -34 -15 -34 -20 0 -4 -10 -11 -22 -15 -13 -4 -26 -8
-30 -10 -5 -1 -13 -3 -19 -4 -5 0 -8 -5 -5 -9 3 -5 -5 -8 -17 -7 -12 1 -26 0
-32 -3 -5 -3 -18 -7 -30 -9 -36 -5 -50 -8 -62 -16 -6 -4 -14 -3 -18 3 -4 6
-11 8 -16 4 -6 -3 -25 -8 -42 -12 -56 -9 -392 -3 -392 8 0 1 -11 4 -25 6 -47
7 -59 10 -66 16 -3 4 -12 4 -20 1 -8 -3 -14 0 -14 7 0 6 -5 8 -10 5 -6 -4 -17
-1 -25 5 -8 6 -19 9 -25 5 -5 -3 -10 -2 -10 4 0 5 -14 12 -30 16 -18 4 -27 11
-24 17 4 7 2 8 -4 4 -11 -7 -70 20 -83 37 -3 5 -10 8 -15 8 -5 -1 -17 6 -26
14 -10 8 -18 12 -18 8 0 -3 -8 4 -19 15 -10 12 -20 19 -23 17 -3 -3 -11 1 -18
10 -7 8 -19 15 -27 15 -8 0 -11 5 -8 10 3 6 -3 10 -13 10 -11 0 -23 7 -26 16
-3 8 -10 13 -15 9 -6 -3 -14 3 -20 12 -6 10 -11 15 -11 12 0 -6 -110 101 -110
107 0 2 -11 14 -25 28 -14 14 -25 23 -25 20 0 -3 -24 19 -54 48 -66 63 -96 90
-96 82 0 -2 -12 7 -27 21 -15 14 -33 25 -40 25 -19 0 -16 -43 5 -66 30 -33 63
-95 56 -106 -4 -6 -2 -8 3 -5 9 6 27 -18 20 -26 -1 -1 8 -13 20 -26 12 -13 20
-28 17 -33 -3 -5 5 -19 18 -31 13 -12 39 -44 58 -72 18 -27 38 -52 42 -53 4
-2 6 -8 2 -13 -3 -5 0 -9 7 -9 7 0 10 -3 7 -6 -3 -3 4 -16 16 -29 37 -40 45
-53 39 -59 -4 -3 -1 -6 5 -6 7 0 12 -9 12 -20 0 -11 6 -20 14 -20 8 0 16 -4
18 -9 8 -21 62 -82 175 -194 137 -138 180 -176 187 -169 3 3 8 -3 12 -12 3 -9
12 -16 19 -16 6 0 24 -11 39 -25 14 -13 26 -19 26 -12 0 7 4 6 10 -3 5 -8 14
-16 20 -16 5 -1 15 -2 21 -3 5 0 8 -5 5 -9 -3 -5 0 -9 7 -10 18 -1 49 -9 80
-21 15 -6 27 -8 27 -5 0 4 6 2 13 -3 6 -5 28 -10 47 -12 19 -1 38 -7 42 -14 6
-9 8 -8 8 3 0 9 3 11 8 5 9 -14 272 -17 288 -4 8 7 14 6 19 -1 3 -6 11 -7 18
-3 6 3 25 7 41 9 97 6 179 20 201 33 6 3 19 7 30 8 11 2 22 8 23 13 2 6 8 7
13 4 6 -3 16 0 24 6 8 7 15 9 15 6 0 -4 14 2 31 14 16 12 33 20 36 17 3 -4 12
1 20 9 8 8 19 12 24 9 5 -4 9 -1 9 5 0 6 5 8 10 5 6 -3 10 -2 10 4 0 5 10 13
22 17 12 3 28 13 36 20 7 8 22 14 33 14 11 0 18 4 15 9 -3 5 8 14 24 21 17 7
30 16 30 20 0 4 9 10 21 13 13 4 18 10 13 18 -4 7 -3 10 3 6 6 -4 16 0 23 8 7
8 17 12 24 8 6 -3 8 -3 4 2 -9 9 62 61 76 57 5 -2 6 4 3 13 -6 13 4 20 26 16
4 0 7 6 7 14 0 8 4 15 8 15 12 0 172 160 172 171 0 6 3 8 8 6 4 -2 17 7 29 20
12 13 20 23 16 23 -3 0 14 18 37 40 23 22 40 40 37 40 -4 0 7 14 23 30 17 17
30 35 30 41 0 6 5 7 10 4 6 -3 10 1 10 10 0 9 5 13 10 10 6 -3 10 -1 10 5 0
18 47 70 55 62 5 -4 5 -2 2 4 -3 6 7 25 23 43 17 18 30 37 30 43 0 5 7 8 14 5
10 -4 13 -1 10 7 -3 8 4 20 15 28 12 8 18 18 14 21 -3 4 -2 7 4 7 6 0 13 9 16
20 3 11 13 20 22 20 9 0 14 4 10 9 -3 6 3 14 12 20 10 5 18 13 17 18 -2 14 28
53 37 47 5 -3 6 1 3 9 -3 8 2 17 11 21 9 3 13 10 10 16 -3 5 -2 10 3 10 5 0
13 8 18 19 30 62 230 265 238 241 1 -3 13 3 27 12 23 14 96 40 124 43 6 1 28
7 49 13 22 6 43 9 47 7 4 -3 9 -1 11 5 1 5 21 11 43 14 22 2 53 9 69 15 16 6
31 9 34 6 3 -2 11 0 19 7 7 6 16 8 19 5 3 -3 21 1 40 9 18 8 37 13 41 12 5 -1
28 4 53 11 25 7 54 15 64 17 11 2 22 7 25 11 3 5 15 9 26 11 29 4 35 6 89 30
27 12 52 22 57 22 4 0 15 7 24 17 14 14 18 14 26 2 7 -11 9 -11 9 3 0 15 35
35 53 30 5 -1 6 1 4 5 -2 5 9 18 24 31 25 20 28 21 23 5 -3 -10 3 -6 12 10 10
15 22 27 26 27 4 0 16 10 28 22 11 12 20 19 20 15 0 -3 38 33 85 80 47 47 85
89 85 92 0 3 13 20 28 36 15 17 31 38 35 48 3 9 11 17 17 17 6 0 8 5 5 10 -3
6 -2 10 2 10 13 0 43 56 35 65 -4 5 -2 6 3 3 8 -5 38 16 34 24 -3 8 26 58 33
58 5 0 6 5 3 10 -3 6 -1 10 5 10 6 0 8 5 5 10 -3 6 -1 10 5 10 6 0 9 4 5 9 -3
6 3 14 12 20 10 5 17 12 15 15 -1 4 4 19 12 35 9 16 12 31 9 35 -4 3 -1 6 5 6
7 0 12 7 12 15 0 18 14 19 41 4 11 -5 17 -14 14 -20 -4 -5 -3 -8 2 -7 9 3 60
-34 109 -77 50 -45 74 -65 79 -65 3 0 14 -8 24 -17 30 -27 45 -38 61 -41 8 -2
17 -8 18 -13 2 -5 10 -9 18 -9 8 0 27 -8 41 -17 21 -14 25 -15 18 -3 -7 12 -6
13 6 3 21 -17 79 -26 169 -26 105 0 163 5 178 16 8 6 12 6 12 -2 0 -8 6 -9 18
-3 16 9 84 25 107 26 6 1 13 5 16 9 3 4 19 10 35 13 16 2 38 8 49 13 11 5 34
14 50 19 17 6 39 13 50 18 31 11 48 16 68 17 9 1 17 7 17 15 0 7 4 11 9 8 4
-3 34 3 64 14 31 11 67 22 79 24 13 3 23 5 23 6 0 2 10 4 60 16 41 10 99 11
105 2 3 -4 23 -8 44 -10 20 -1 40 -6 42 -10 3 -5 10 -6 15 -2 5 3 17 0 26 -8
14 -11 16 -11 8 2 -7 12 -6 13 6 4 8 -6 57 -19 109 -29 52 -9 102 -20 110 -23
17 -6 63 -11 137 -15 29 -1 55 -6 59 -9 4 -4 15 -3 25 3 14 7 19 6 19 -2 0 -9
3 -9 14 0 10 8 16 9 21 1 3 -6 10 -8 14 -6 17 11 61 14 67 5 3 -5 10 -6 17 -2
6 4 41 8 77 9 114 4 326 45 341 67 3 5 10 8 15 8 19 -1 84 20 84 27 0 4 10 8
22 9 11 1 24 7 28 13 4 7 11 12 16 12 17 1 39 11 56 26 10 8 24 12 33 9 8 -4
14 -1 12 6 -1 7 4 11 11 10 6 -2 12 2 12 7 0 6 7 10 15 10 8 0 15 4 15 9 0 8
34 21 45 18 3 -1 12 8 20 21 9 12 20 20 24 18 4 -3 19 6 34 20 14 13 28 24 31
24 3 0 17 11 32 25 15 14 33 25 40 25 7 0 23 13 37 29 14 17 28 27 31 24 3 -4
6 -1 6 6 0 7 3 10 8 8 4 -3 13 1 20 9 7 8 9 14 5 14 -4 0 7 10 25 21 17 12 32
25 32 31 0 5 5 6 10 3 6 -3 10 -1 10 5 0 6 5 8 12 4 7 -4 8 -3 4 5 -4 6 0 14
8 17 9 3 13 10 10 15 -3 5 2 9 10 9 9 0 16 5 16 12 0 6 3 8 7 5 3 -4 17 8 30
26 13 17 27 30 30 29 3 -2 9 1 12 7 16 25 211 218 216 213 3 -3 5 -1 5 5 0 5
18 28 40 51 22 22 40 45 40 51 0 6 6 11 14 11 13 0 31 27 28 43 -1 4 2 7 8 7
5 0 10 7 10 16 0 9 5 12 12 8 8 -5 9 -2 5 10 -4 10 -1 19 8 22 8 4 13 10 10
14 -3 5 0 14 7 22 13 13 14 18 24 67 l5 26 -121 0 c-67 0 -124 3 -126 7 -3 5
-14 3 -25 -2 -12 -7 -19 -7 -19 -1 0 6 -12 7 -27 2 -16 -4 -49 -6 -75 -6 -27
1 -48 -2 -48 -6 0 -4 -8 -6 -17 -4 -10 1 -24 -2 -30 -8 -7 -5 -13 -6 -13 -2 0
4 -7 2 -15 -5 -8 -7 -15 -10 -15 -6 0 9 -91 -44 -119 -70 -14 -13 -32 -24 -39
-24 -7 0 -10 -4 -7 -10 3 -5 -1 -10 -9 -10 -9 0 -16 -4 -16 -9 0 -5 -9 -13
-20 -16 -11 -4 -18 -11 -15 -16 5 -8 -2 -11 -21 -8 -3 0 -17 -13 -31 -30 -14
-17 -29 -29 -33 -26 -4 2 -23 -11 -43 -29 -20 -18 -39 -31 -42 -28 -2 3 -14
-7 -26 -21 -11 -15 -27 -27 -35 -27 -8 0 -14 -4 -14 -10 0 -5 -5 -10 -12 -10
-7 0 -25 -12 -41 -27 -17 -16 -27 -21 -23 -13 4 8 -3 4 -16 -10 -13 -14 -31
-26 -39 -28 -7 -2 -16 -7 -19 -12 -3 -5 -12 -10 -20 -12 -21 -5 -39 -22 -32
-32 3 -5 0 -6 -6 -2 -6 3 -17 -1 -25 -9 -9 -8 -20 -15 -25 -15 -5 0 -15 -7
-22 -15 -7 -9 -15 -13 -18 -11 -2 3 -11 -2 -19 -10 -8 -8 -19 -12 -24 -9 -5 4
-9 2 -9 -4 0 -6 -11 -13 -25 -17 -14 -3 -25 -11 -25 -16 0 -6 -6 -8 -14 -5 -8
3 -17 -1 -20 -9 -3 -9 -10 -12 -16 -9 -5 3 -10 1 -10 -6 0 -7 -3 -9 -6 -6 -4
4 -20 -3 -35 -14 -16 -11 -33 -17 -39 -14 -5 3 -10 0 -10 -7 0 -8 -9 -15 -20
-16 -44 -4 -49 -6 -54 -19 -3 -8 -10 -12 -15 -9 -5 3 -25 -1 -45 -9 -20 -8
-36 -12 -36 -9 0 4 -7 1 -15 -6 -11 -9 -15 -9 -15 -1 0 9 -5 9 -21 0 -15 -8
-19 -8 -15 0 5 7 -2 11 -19 11 -14 0 -31 5 -38 10 -7 6 -22 18 -34 28 -11 10
-22 24 -24 32 -4 19 22 90 33 90 4 0 8 8 9 18 0 9 9 31 19 47 10 17 32 56 48
87 16 32 33 54 37 50 5 -4 5 1 2 11 -4 9 -2 17 3 17 6 0 10 7 10 15 0 8 4 15
9 15 5 0 12 11 15 25 4 14 11 25 17 25 6 0 7 5 4 10 -3 6 -1 10 5 10 6 0 8 5
5 10 -3 6 1 13 10 16 9 4 14 12 11 20 -3 7 -2 14 2 16 14 6 43 68 37 78 -3 6
-2 10 3 10 12 0 34 49 27 61 -4 5 -2 9 4 9 6 0 14 15 19 32 7 30 5 34 -25 55
-19 13 -40 23 -48 23 -8 0 -17 5 -20 11 -4 6 -13 8 -21 5 -8 -3 -14 -1 -14 4
0 6 -3 9 -7 9 -5 -1 -10 0 -13 1 -11 4 -48 10 -88 15 -24 3 -48 7 -52 10 -5 3
-11 1 -15 -4 -4 -7 -15 -7 -31 -1 -32 12 -37 12 -29 1 3 -6 -7 -6 -27 -1 -18
6 -36 6 -42 1 -6 -5 -24 -12 -41 -14 -16 -3 -48 -11 -70 -18 -22 -7 -43 -12
-47 -11 -5 1 -8 -3 -8 -9 0 -5 -5 -7 -12 -3 -7 4 -8 3 -4 -4 4 -6 -5 -18 -19
-28 -13 -9 -22 -21 -18 -27 4 -6 0 -8 -10 -4 -9 3 -16 3 -14 -2 1 -4 -8 -19
-20 -32 -72 -81 -84 -93 -78 -79 3 8 0 6 -7 -5 -23 -34 -296 -304 -302 -298
-3 4 -6 -2 -6 -12 0 -10 -2 -16 -5 -13 -3 3 -26 -14 -51 -38 -25 -24 -50 -44
-56 -44 -5 0 -27 -18 -48 -40 -20 -22 -40 -37 -42 -34 -3 3 -19 -8 -36 -23
-17 -15 -48 -37 -69 -48 -21 -11 -44 -26 -51 -33 -8 -7 -17 -10 -22 -7 -4 3
-10 -2 -14 -10 -3 -8 -10 -15 -16 -15 -6 0 -29 -12 -51 -26 -23 -14 -38 -20
-33 -12 4 7 -2 5 -14 -6 -21 -19 -59 -15 -47 4 4 6 1 18 -6 26 -14 17 -20 124
-7 124 4 0 7 3 6 8 -4 16 14 72 23 72 6 0 8 4 4 9 -3 5 -1 12 5 16 6 4 8 11 5
16 -4 5 -2 9 4 9 6 0 18 16 27 35 9 19 20 35 25 35 5 0 9 6 9 13 0 7 11 25 25
40 14 15 23 27 19 27 -4 0 1 8 12 19 10 10 25 28 33 39 8 12 19 18 24 15 6 -3
7 -1 3 5 -3 6 10 27 29 46 20 20 33 36 30 36 -3 0 3 10 15 22 11 12 20 26 20
32 0 5 3 7 6 3 7 -7 44 29 44 43 0 6 5 10 11 10 5 0 7 4 4 10 -3 6 1 7 10 4
10 -4 15 -2 13 7 -2 8 4 13 13 13 9 -1 16 6 15 15 0 9 5 15 12 13 8 -1 11 2 7
8 -3 5 9 19 27 30 18 11 27 20 19 20 -11 0 -9 4 4 14 11 8 24 12 29 9 5 -4 6
-2 3 4 -3 5 15 27 40 49 25 21 59 51 75 66 15 15 28 25 28 22 0 -3 16 11 35
30 19 20 35 33 35 29 0 -5 7 1 15 11 8 11 15 16 15 11 0 -5 7 1 16 13 8 12 21
22 29 22 8 0 19 8 24 18 6 9 11 14 11 10 0 -5 9 1 20 12 11 11 27 20 36 20 8
0 12 5 9 10 -3 6 1 10 9 10 9 0 16 4 16 10 0 5 11 12 24 16 14 3 27 13 30 21
4 8 13 13 20 10 8 -3 16 0 19 6 5 14 83 57 103 57 13 0 18 -12 15 -33 0 -4 3
-6 7 -5 8 3 56 -30 91 -62 9 -8 29 -21 44 -29 15 -8 27 -18 27 -23 0 -4 9 -8
20 -8 11 0 20 -4 20 -10 0 -5 9 -10 20 -10 11 0 20 -5 20 -12 0 -6 3 -8 7 -5
3 4 17 0 30 -8 13 -9 23 -11 23 -5 0 6 11 3 25 -6 14 -9 28 -14 32 -10 3 3 12
1 19 -5 8 -6 64 -12 131 -13 97 -2 123 1 147 16 16 9 34 14 39 11 6 -3 7 -1 3
5 -3 6 2 15 11 21 10 6 14 11 9 11 -5 0 0 8 11 18 11 9 19 25 17 35 -1 9 2 17
7 17 6 0 7 5 4 10 -3 6 -2 10 3 10 5 0 9 6 9 13 0 6 3 30 7 53 4 22 7 57 8 77
1 21 6 37 12 37 7 0 7 3 1 8 -15 11 -17 32 -3 32 9 0 9 3 0 12 -7 7 -8 17 -1
30 5 10 6 18 1 18 -5 0 -9 14 -10 31 0 18 -5 36 -11 42 -5 5 -7 16 -4 23 3 8
0 14 -6 14 -6 0 -11 3 -10 8 2 15 -14 52 -22 52 -5 0 -9 5 -9 11 0 6 -7 17
-15 26 -8 8 -12 19 -9 25 4 7 2 8 -4 4 -7 -4 -12 -2 -12 4 0 6 -13 24 -30 40
-16 16 -30 34 -30 40 0 6 -4 8 -10 5 -9 -6 -14 8 -11 28 1 5 -3 6 -9 2 -5 -3
-13 1 -16 9 -3 9 -10 13 -15 10 -5 -3 -6 3 -2 12 5 13 3 16 -10 11 -10 -4 -17
-2 -17 4 0 15 -57 79 -63 72 -3 -2 -5 1 -3 9 1 7 16 28 33 47 18 19 31 39 30
44 -1 6 8 16 21 22 13 7 24 16 24 21 1 15 75 94 87 94 7 0 10 4 7 9 -3 5 7 19
23 32 16 13 27 27 25 31 -3 4 0 8 5 8 16 0 50 37 43 46 -4 4 1 4 11 1 10 -4
16 -3 13 2 -6 10 175 197 187 193 5 -1 6 2 2 8 -3 5 10 26 29 45 20 19 33 35
30 35 -3 0 1 6 8 14 7 8 17 11 22 8 5 -3 6 0 3 5 -4 6 4 22 18 37 13 14 21 26
17 26 -4 0 0 6 9 13 9 7 16 14 17 17 0 3 3 12 5 20 20 63 24 78 22 98 -1 12 1
22 4 22 7 0 5 57 -5 180 -3 47 -7 95 -7 107 -1 21 -5 22 -63 19 -34 -2 -67 -7
-72 -10 -6 -3 -12 -1 -14 5 -2 5 -7 7 -10 3z m-1316 -1186 c6 -11 8 -11 8 0 0
10 5 10 20 2 11 -6 20 -8 20 -4 0 3 8 0 17 -7 9 -8 14 -9 10 -3 -4 6 9 4 28
-4 19 -9 35 -20 35 -24 0 -4 7 -8 15 -8 8 0 15 -5 15 -11 0 -5 6 -7 13 -3 6 4
8 3 4 -1 -4 -5 -14 -10 -23 -11 -8 -1 -32 -11 -53 -22 -22 -12 -42 -18 -45
-15 -3 4 -6 1 -6 -6 0 -8 -8 -11 -20 -8 -11 3 -18 0 -17 -7 1 -6 -6 -10 -15
-10 -10 1 -15 -3 -11 -9 4 -6 -2 -8 -15 -5 -12 4 -20 2 -16 -3 3 -5 -2 -9 -11
-9 -8 0 -18 -7 -21 -15 -4 -8 -10 -13 -14 -10 -5 3 -11 1 -15 -5 -4 -6 -11 -8
-16 -5 -5 4 -9 1 -9 -4 0 -6 -7 -11 -15 -11 -8 0 -15 -5 -15 -11 0 -5 -4 -7
-10 -4 -5 3 -10 1 -10 -5 0 -6 -4 -8 -10 -5 -5 3 -10 1 -10 -5 0 -6 -4 -8 -10
-5 -5 3 -10 1 -10 -4 0 -6 -7 -11 -15 -11 -8 0 -15 -4 -15 -10 0 -5 -6 -10
-13 -10 -7 0 -23 -9 -35 -20 -12 -12 -22 -18 -22 -14 0 3 -6 1 -13 -5 -8 -6
-17 -9 -20 -6 -4 3 -5 2 -2 -2 7 -9 -27 -32 -48 -33 -10 0 -16 -4 -13 -8 3 -4
-11 -16 -30 -27 -19 -10 -34 -23 -34 -28 0 -6 -3 -8 -6 -4 -3 3 -15 -3 -27
-14 -11 -10 -27 -19 -34 -19 -8 0 -12 -4 -9 -8 3 -4 -13 -19 -35 -32 -21 -14
-39 -29 -39 -33 0 -5 -7 -6 -16 -3 -8 3 -12 2 -9 -4 3 -5 -5 -15 -19 -21 -14
-7 -23 -16 -20 -20 3 -5 -2 -9 -11 -9 -9 0 -13 -4 -10 -10 3 -5 1 -10 -4 -10
-6 0 -13 0 -16 0 -3 0 -24 -20 -48 -44 -24 -24 -56 -51 -70 -61 -15 -9 -25
-21 -22 -25 5 -8 -24 -25 -38 -21 -5 1 -6 -3 -3 -8 3 -5 -1 -12 -10 -15 -8 -3
-12 -10 -9 -16 5 -9 -7 -14 -27 -11 -4 0 -10 -9 -13 -20 -4 -11 -17 -24 -31
-29 -15 -6 -22 -15 -18 -24 3 -9 -3 -17 -16 -21 -12 -4 -19 -9 -17 -12 3 -2
-11 -21 -31 -41 -21 -20 -36 -40 -35 -44 2 -4 -5 -8 -14 -8 -9 0 -14 -3 -10
-6 3 -3 -3 -16 -14 -28 -11 -11 -30 -34 -42 -50 -12 -15 -32 -39 -45 -52 -13
-13 -20 -24 -17 -24 4 0 0 -6 -7 -14 -7 -7 -20 -24 -28 -36 -8 -12 -22 -29
-30 -38 -8 -9 -15 -18 -15 -21 0 -14 -32 -50 -39 -44 -4 4 -4 0 0 -10 3 -10 1
-17 -5 -17 -6 0 -11 -7 -11 -15 0 -8 -9 -20 -19 -27 -10 -6 -17 -17 -14 -25 3
-7 -2 -16 -11 -19 -9 -3 -14 -9 -11 -14 6 -9 -40 -72 -48 -64 -3 3 -3 -3 0
-15 3 -12 1 -21 -6 -21 -6 0 -11 -7 -11 -16 0 -8 -15 -30 -34 -47 -26 -25 -43
-33 -73 -32 -26 0 -37 4 -35 13 1 8 -2 11 -7 8 -5 -4 -16 3 -24 14 -8 11 -31
38 -51 60 -20 21 -36 44 -36 50 0 6 -4 8 -10 5 -5 -3 -10 -2 -10 2 0 5 -13 23
-30 41 -16 18 -30 35 -30 37 -2 18 -14 34 -21 29 -5 -3 -8 -2 -7 3 1 4 -6 23
-15 41 -10 17 -15 32 -12 32 4 0 -1 7 -9 16 -9 8 -16 30 -17 47 0 18 -2 40 -4
50 -2 9 1 17 6 17 4 0 6 7 3 15 -4 8 -1 15 6 15 6 0 8 5 5 10 -3 6 -1 10 4 10
6 0 10 6 9 13 -2 6 3 11 10 9 8 -1 11 1 8 6 -5 9 28 42 42 42 4 0 13 9 20 21
8 12 19 18 27 15 8 -3 14 -2 12 3 -5 16 138 118 158 112 6 -1 7 0 3 4 -8 8 14
35 23 29 3 -1 20 10 37 25 17 16 33 26 36 23 3 -3 6 0 6 7 0 7 5 9 10 6 6 -3
13 1 16 9 3 9 12 16 19 16 7 0 15 4 17 9 2 5 10 11 18 13 8 2 21 11 28 21 7 9
19 17 26 17 8 0 17 7 20 16 4 9 9 14 12 11 6 -5 15 0 48 30 8 7 16 9 20 6 3
-4 6 -1 6 6 0 8 6 11 16 7 12 -5 15 -2 10 9 -3 9 -2 13 3 10 5 -3 12 -1 16 5
3 5 21 17 39 25 18 9 42 25 54 35 11 10 22 17 25 14 2 -2 10 2 17 11 7 8 18
15 24 15 6 0 23 11 38 25 15 14 30 24 32 23 3 -2 14 5 25 14 11 9 22 14 25 11
3 -4 6 -1 6 5 0 7 9 12 19 12 10 0 22 7 25 16 3 8 10 12 16 9 5 -3 10 1 10 9
0 9 3 15 8 14 11 -3 82 35 82 44 0 4 7 8 15 8 15 0 25 6 59 37 8 7 16 9 20 6
3 -3 8 2 12 11 3 9 10 14 14 11 5 -3 15 2 23 10 9 8 20 15 25 15 5 0 15 7 22
15 7 8 21 15 31 15 10 0 22 6 26 14 4 8 15 16 23 18 8 2 21 10 28 18 12 13 13
13 7 0 -4 -8 3 -4 14 10 11 14 21 21 21 16 0 -5 8 -2 18 7 10 10 22 14 25 10
4 -3 7 -1 7 6 0 7 5 9 10 6 6 -3 10 -3 10 2 0 8 57 37 73 38 4 0 11 6 16 13 4
7 18 14 29 15 12 1 22 5 22 10 0 5 9 7 20 4 11 -3 18 -1 14 4 -3 5 0 10 5 10
14 2 30 6 34 9 4 3 41 11 64 13 12 2 24 5 27 8 11 11 70 9 78 -3z m-4957
-1128 c-2 -26 -8 -44 -15 -42 -6 1 -10 -4 -8 -11 4 -16 -23 -87 -33 -87 -4 0
-10 -11 -13 -25 -4 -14 -11 -23 -16 -20 -6 3 -10 -1 -10 -10 0 -8 -7 -18 -15
-21 -8 -4 -15 -12 -15 -20 0 -8 -3 -14 -7 -14 -13 0 -63 -47 -58 -54 3 -3 2
-4 -1 -1 -4 2 -19 -4 -34 -15 -16 -11 -31 -20 -34 -20 -3 0 -14 -7 -23 -15
-10 -8 -22 -15 -26 -14 -4 0 -19 -7 -33 -16 -13 -9 -29 -13 -34 -10 -6 3 -10
2 -10 -3 0 -5 -15 -13 -32 -17 -36 -8 -35 -8 -60 -19 -10 -5 -25 -6 -33 -2 -8
3 -15 1 -15 -3 0 -5 -8 -7 -18 -4 -17 4 -27 33 -12 33 3 0 6 10 7 22 2 20 5
31 29 93 4 11 6 23 6 28 -1 4 2 7 8 7 5 0 16 12 24 28 15 29 123 144 131 140
2 -2 14 5 25 15 11 9 25 17 30 17 6 0 10 5 10 12 0 6 3 8 6 5 4 -4 19 2 34 13
15 11 30 17 34 13 3 -3 6 -2 6 4 0 9 6 11 50 15 11 1 20 6 20 10 0 4 16 10 35
14 19 3 33 9 31 13 -2 3 13 6 34 6 l39 0 -4 -45z m2691 -517 c28 -14 62 -73
56 -95 -1 -5 3 -8 9 -8 6 0 9 -9 6 -20 -3 -11 -2 -20 2 -20 4 0 8 -16 9 -35 1
-20 4 -40 7 -45 4 -6 0 -10 -7 -10 -10 0 -10 -2 0 -8 14 -9 12 -88 -2 -111 -6
-9 -5 -12 2 -7 10 6 9 0 -16 -74 -8 -25 -13 -44 -14 -57 -1 -7 -5 -13 -8 -13
-4 0 -13 -13 -20 -30 -7 -16 -16 -30 -21 -30 -5 0 -9 -5 -9 -11 0 -13 -67 -79
-80 -79 -5 0 -15 -7 -23 -14 -8 -8 -25 -16 -38 -18 -13 -2 -29 -7 -36 -11 -6
-4 -14 -3 -18 3 -4 6 -12 7 -18 3 -7 -4 -20 -8 -29 -9 -10 -1 -19 -2 -20 -4
-2 -1 -50 -4 -108 -6 -58 -2 -120 -5 -137 -7 -18 -2 -33 -1 -33 2 0 3 -62 6
-139 5 -128 -1 -138 0 -134 17 3 10 11 20 19 23 8 3 14 14 14 24 0 10 11 32
24 47 14 16 23 32 20 37 -3 4 -1 8 4 8 5 0 15 11 22 25 7 13 18 22 23 18 6 -3
7 -1 3 6 -5 7 1 20 15 32 12 10 19 19 15 19 -4 0 7 13 24 30 16 16 30 34 30
40 0 5 7 10 16 10 8 0 12 5 9 10 -3 6 -1 10 5 10 6 0 9 4 6 8 -2 4 4 14 16 21
15 9 18 10 13 0 -5 -8 -4 -10 3 -5 7 4 12 13 12 20 0 7 21 33 46 57 26 24 54
52 64 63 29 29 32 33 83 77 26 23 47 38 47 34 0 -5 8 1 18 12 9 11 27 23 40
27 12 4 19 12 16 18 -4 6 -1 9 7 6 8 -3 25 3 39 13 43 29 110 30 166 2z"/>
<path d="M6725 12756 c-27 -6 -54 -14 -60 -17 -5 -3 -22 -5 -37 -4 -15 1 -25
-2 -22 -6 2 -4 0 -10 -5 -13 -5 -4 -12 -2 -16 4 -4 6 -12 4 -22 -5 -8 -9 -28
-19 -44 -22 -16 -3 -29 -10 -29 -16 0 -6 -3 -8 -6 -4 -6 6 -17 -1 -54 -35 -10
-9 -21 -14 -24 -10 -3 3 -6 0 -6 -7 0 -7 -4 -10 -8 -7 -4 2 -17 -9 -27 -25
-11 -16 -25 -29 -30 -29 -6 0 -17 -9 -25 -21 -8 -11 -25 -33 -38 -47 -12 -15
-25 -35 -28 -44 -3 -10 -9 -18 -14 -18 -8 0 -34 -59 -31 -72 0 -5 -3 -8 -9 -8
-5 0 -10 -9 -10 -20 0 -11 -4 -20 -8 -20 -5 0 -9 -6 -10 -12 0 -7 -3 -22 -5
-33 -20 -77 -23 -111 -22 -192 1 -59 6 -97 14 -107 8 -9 10 -16 6 -16 -4 0 -2
-7 5 -15 7 -8 10 -15 6 -15 -4 0 2 -17 13 -39 11 -21 17 -42 13 -46 -4 -5 -1
-5 6 -1 6 4 12 3 12 -3 0 -14 83 -101 97 -101 6 0 16 -7 23 -15 12 -14 81 -51
102 -55 4 0 26 -7 48 -15 22 -8 40 -12 40 -8 0 3 6 1 13 -4 6 -5 31 -9 54 -8
24 0 43 -3 43 -6 0 -8 164 -4 178 5 7 4 12 2 12 -5 0 -8 4 -8 15 1 11 9 15 9
15 1 0 -9 5 -9 20 -1 15 8 20 8 20 -1 0 -7 4 -8 13 -2 6 5 24 9 40 8 15 0 27
2 27 6 0 4 18 10 40 14 22 4 40 11 40 16 0 5 9 9 19 9 11 0 26 6 33 13 13 13
39 26 48 23 3 0 19 13 35 29 17 17 47 45 68 63 21 17 35 32 32 32 -3 0 3 8 13
18 9 10 23 27 30 38 7 10 10 12 6 4 -4 -9 -3 -12 2 -7 5 5 9 12 9 15 2 20 18
52 26 52 5 0 9 7 9 15 0 8 4 15 8 15 5 0 9 6 9 13 0 6 10 36 22 65 11 28 18
52 15 52 -4 0 -2 6 3 13 10 13 15 48 16 110 1 20 5 37 10 37 4 0 5 5 2 10 -4
6 -9 33 -11 61 -2 28 -9 59 -14 69 -6 10 -10 28 -10 39 0 12 -4 21 -9 21 -5 0
-14 14 -21 30 -7 17 -15 30 -19 30 -3 0 -17 16 -30 35 -13 19 -27 32 -32 29
-5 -3 -9 2 -9 11 0 9 -4 14 -8 11 -5 -3 -15 4 -22 15 -8 10 -20 19 -27 19 -6
0 -16 8 -22 18 -5 9 -12 16 -15 15 -13 -4 -46 10 -46 20 0 6 -3 7 -7 4 -3 -4
-11 -3 -17 2 -10 8 -82 32 -111 37 -5 1 -12 3 -15 4 -36 14 -237 18 -295 6z"/>
<path d="M11115 12632 c-16 -1 -37 -6 -45 -9 -8 -3 -22 -7 -30 -7 -13 -1 -90
-43 -144 -79 -29 -19 -66 -57 -102 -104 -17 -23 -35 -39 -39 -35 -4 4 -6 3 -5
-3 4 -18 -12 -55 -21 -49 -5 3 -6 -2 -3 -10 3 -9 1 -16 -5 -16 -6 0 -10 -3 -9
-7 3 -14 -14 -83 -21 -83 -18 0 1 -172 21 -197 6 -7 7 -13 4 -13 -4 0 2 -10
14 -22 11 -12 20 -28 20 -35 0 -8 5 -11 10 -8 6 3 10 -1 10 -10 0 -9 5 -13 10
-10 6 3 10 1 10 -4 0 -6 3 -11 8 -10 14 2 52 -13 52 -21 0 -4 12 -7 26 -7 15
0 29 -4 33 -9 3 -5 15 -10 26 -11 39 -5 180 -4 205 1 63 14 96 20 103 18 4 -1
7 3 7 9 0 6 7 9 15 5 8 -3 15 -1 15 5 0 6 4 8 9 5 14 -9 172 100 171 119 -1
11 32 55 39 51 3 -2 7 7 8 21 0 14 5 28 10 32 8 6 14 22 18 51 1 8 6 24 11 35
5 11 8 58 8 105 -2 122 -33 183 -138 268 -9 7 -30 14 -46 15 -16 1 -30 6 -30
11 0 4 -11 6 -25 4 -14 -3 -25 -2 -25 1 0 3 -27 6 -60 7 -33 0 -60 -4 -60 -9
0 -6 -5 -6 -12 0 -7 5 -26 7 -43 5z"/>
<path d="M1717 12039 c-27 -9 -57 -23 -68 -32 -10 -9 -19 -14 -19 -11 0 3 -36
-31 -80 -75 -44 -45 -80 -85 -80 -91 0 -5 -5 -10 -11 -10 -5 0 -8 -4 -5 -9 3
-5 0 -11 -8 -14 -15 -6 -36 -40 -57 -89 -6 -16 -15 -28 -21 -28 -5 0 -6 -4 -3
-10 3 -5 1 -10 -4 -10 -6 0 -11 -5 -11 -12 0 -19 -33 -88 -43 -88 -4 0 -5 -5
-2 -10 4 -6 2 -16 -3 -23 -5 -7 -13 -25 -17 -42 -10 -36 -10 -36 -19 -57 -4
-9 -5 -21 -2 -27 3 -5 1 -11 -5 -13 -11 -4 -19 -32 -22 -80 -1 -10 -4 -18 -7
-18 -7 0 -9 -8 -13 -55 -1 -16 -6 -36 -10 -42 -5 -7 -6 -17 -2 -22 3 -5 1 -12
-4 -16 -5 -3 -8 -14 -6 -25 2 -11 0 -20 -6 -20 -5 0 -7 -12 -5 -27 3 -14 2
-31 -2 -37 -3 -6 -7 -18 -8 -26 -6 -39 -15 -98 -20 -125 -3 -16 -6 -38 -6 -47
1 -10 -3 -20 -8 -23 -5 -3 -7 -12 -3 -20 3 -8 2 -23 -2 -32 -5 -10 -9 -27 -10
-38 -7 -70 -26 -104 -38 -71 -3 8 -14 19 -24 25 -16 8 -19 6 -20 -12 -1 -12
-5 -38 -8 -57 -3 -19 -7 -48 -8 -65 -1 -16 -6 -33 -10 -36 -4 -3 -9 -22 -10
-42 -1 -21 -6 -37 -11 -37 -5 0 -7 -2 -4 -6 3 -3 1 -22 -4 -42 -13 -50 -19
-82 -21 -112 -1 -14 -5 -27 -9 -30 -8 -6 -20 -57 -20 -82 1 -10 -4 -18 -9 -18
-6 0 -7 -4 -4 -10 3 -5 3 -10 -2 -10 -4 0 -9 -10 -10 -22 -3 -41 -15 -88 -22
-88 -3 0 -7 -10 -8 -22 -4 -49 -16 -88 -26 -88 -6 0 -21 10 -34 22 -13 12 -24
17 -24 12 -1 -5 -3 -22 -4 -39 -2 -16 -4 -30 -5 -30 -1 0 -4 -13 -6 -30 -3
-31 -13 -75 -44 -190 -6 -22 -12 -44 -13 -50 -1 -5 -5 -14 -8 -20 -4 -5 -10
-23 -14 -40 -5 -16 -10 -36 -12 -42 -1 -7 -4 -19 -6 -25 -1 -7 -6 -19 -10 -25
-5 -7 -5 -13 -1 -13 3 0 1 -7 -6 -15 -7 -8 -10 -15 -7 -15 3 0 -1 -16 -9 -35
-8 -20 -12 -40 -9 -45 4 -6 1 -10 -4 -10 -6 0 -10 -3 -9 -7 1 -8 -10 -58 -19
-83 -3 -8 -7 -22 -8 -30 -14 -83 -37 -176 -45 -184 -5 -5 -10 -18 -10 -28 0
-10 -7 -21 -15 -24 -8 -4 -12 -10 -9 -15 3 -5 -2 -12 -10 -15 -9 -3 -14 -9
-12 -13 6 -9 -69 -87 -181 -191 -45 -41 -79 -78 -77 -82 3 -5 -2 -11 -11 -14
-14 -6 -61 -84 -56 -93 2 -2 -1 -7 -6 -10 -13 -8 -30 -79 -29 -120 1 -30 5
-36 31 -43 36 -9 100 -20 135 -22 14 -1 31 -6 38 -10 7 -4 12 -3 12 1 0 5 9 9
20 9 11 0 20 -4 20 -8 0 -5 9 -4 19 2 14 7 22 7 26 0 4 -6 12 -7 18 -3 14 10
78 10 94 0 6 -4 13 -3 15 3 1 5 21 11 43 13 22 1 45 6 51 10 6 3 25 8 43 9 17
1 31 6 31 11 0 4 4 6 8 3 5 -3 19 1 33 8 13 7 30 11 37 8 6 -2 12 1 12 7 0 6
3 10 8 9 11 -4 102 36 102 45 0 5 4 6 8 3 5 -3 19 4 30 15 12 11 22 17 22 13
0 -4 9 1 20 11 11 10 20 15 20 11 0 -4 13 7 30 24 16 17 30 28 30 24 0 -4 9 4
21 17 12 13 25 23 30 22 5 -2 9 4 9 13 0 8 5 12 10 9 6 -3 10 -1 10 5 0 6 12
23 28 38 15 15 38 44 51 65 12 21 28 43 35 50 7 6 14 17 15 22 1 6 13 31 26
57 13 25 21 49 18 52 -4 3 0 6 7 6 7 0 11 3 7 6 -3 3 1 23 8 44 7 21 11 41 8
44 -4 3 -1 6 5 6 7 0 11 3 10 8 -4 11 24 105 35 120 5 6 6 12 2 12 -4 0 -3 6
2 13 5 6 9 19 8 27 0 8 2 17 5 20 7 6 42 116 53 163 1 6 7 19 12 27 5 8 11 20
12 25 6 27 10 41 16 55 16 42 59 167 62 180 2 8 4 16 5 18 2 1 3 5 5 10 1 4 5
15 9 24 4 9 9 22 10 30 2 7 8 24 13 38 6 14 21 57 34 95 13 39 27 71 31 73 4
2 4 10 1 18 -3 8 0 14 7 14 7 0 10 6 7 14 -3 7 0 22 8 32 7 11 14 24 15 29 1
6 6 20 11 33 5 13 9 29 9 36 0 6 4 16 8 22 5 5 17 35 27 66 10 31 23 54 28 51
6 -3 7 -1 3 5 -7 12 31 129 45 138 4 2 6 11 2 19 -3 8 0 15 5 15 6 0 9 9 7 20
-2 11 0 20 4 20 8 0 12 12 26 63 2 4 4 10 5 15 2 4 4 14 4 22 1 8 7 14 13 13
6 -1 9 6 6 17 -3 11 0 20 6 20 6 0 10 3 9 8 -4 15 14 72 23 72 5 0 8 3 7 8 -4
17 15 82 24 82 6 0 8 6 5 14 -3 7 -1 18 5 24 6 6 13 24 14 39 2 15 10 33 18
39 9 6 13 14 10 17 -3 3 6 39 21 79 14 40 28 81 30 91 2 9 7 23 12 30 4 6 8
18 9 25 2 8 6 21 10 30 8 18 12 33 17 57 2 8 6 18 10 21 4 4 7 13 7 19 0 7 8
30 17 51 9 22 16 47 14 57 -1 9 3 17 9 17 6 0 8 5 5 10 -4 6 -2 16 3 23 6 7
13 29 17 50 4 20 11 37 17 37 5 0 7 4 4 9 -4 5 -2 21 4 36 7 19 7 24 -1 19 -8
-4 -8 -1 -2 12 12 24 9 117 -5 168 -6 22 -9 43 -6 47 2 4 0 10 -6 14 -5 3 -10
19 -10 35 0 16 -5 32 -10 35 -6 4 -10 12 -8 18 5 29 -14 55 -45 62 -36 8 -86
16 -104 18 -7 0 -13 3 -13 7 0 4 -6 7 -12 7 -19 1 -83 11 -83 13 0 1 -15 3
-33 5 -19 2 -40 6 -48 9 -8 3 -14 0 -14 -7 0 -8 -3 -8 -8 -2 -9 14 -92 14 -92
0 0 -7 -3 -7 -8 0 -4 7 -24 5 -55 -6z"/>
<path d="M18020 10880 c-9 -6 -10 -10 -3 -10 6 0 15 5 18 10 8 12 4 12 -15 0z"/>
<path d="M18730 9090 c-164 -42 -273 -140 -287 -258 -6 -58 7 -106 42 -146 14
-16 25 -32 25 -35 0 -3 -22 -25 -49 -48 -50 -43 -80 -94 -85 -141 -4 -44 13
-104 39 -139 22 -28 109 -80 147 -87 7 -2 30 -6 50 -10 20 -5 67 -9 105 -10
256 -9 467 142 475 338 2 53 -33 125 -73 151 -16 11 -29 25 -29 30 0 6 22 27
48 47 78 57 105 145 68 216 -48 92 -292 140 -476 92z m193 -121 c37 -17 47
-48 32 -94 -22 -63 -49 -70 -113 -28 -45 30 -66 69 -50 97 19 33 85 46 131 25z
m-196 -429 c112 -47 135 -67 128 -106 -2 -10 -4 -25 -4 -31 -1 -19 -58 -44
-100 -45 -95 -1 -165 90 -131 172 15 36 38 38 107 10z"/>
<path d="M18128 8984 c-2 -1 -25 -5 -53 -8 -79 -11 -204 -44 -275 -73 -107
-43 -158 -91 -145 -133 5 -16 17 -20 78 -22 l72 -3 -1 -60 c-1 -106 -22 -262
-45 -333 -14 -41 -35 -52 -101 -52 -61 0 -98 -24 -98 -64 0 -30 49 -55 129
-66 58 -9 334 -6 349 4 4 2 26 7 47 10 85 10 145 28 169 51 33 30 34 70 4 86
-13 7 -24 12 -25 11 -2 -1 -19 -2 -38 -2 -22 0 -43 8 -56 21 -20 20 -21 28
-15 133 6 106 10 139 22 215 3 19 8 52 10 74 7 55 17 71 69 107 81 55 53 113
-52 108 -24 0 -44 -2 -45 -4z"/>
<path d="M17070 8911 c-203 -52 -333 -231 -333 -461 0 -197 111 -325 289 -335
195 -10 389 124 456 313 107 305 -111 560 -412 483z m105 -236 c17 -33 20 -60
20 -160 0 -103 -3 -125 -21 -155 -37 -65 -91 -47 -115 37 -13 50 -17 185 -6
244 17 85 87 105 122 34z"/>
<path d="M16264 8866 c-187 -45 -364 -170 -364 -259 0 -25 33 -56 67 -62 25
-4 41 2 85 35 29 23 63 43 76 46 37 10 71 -4 78 -32 19 -75 -73 -201 -296
-408 -111 -103 -102 -130 39 -122 53 4 137 8 186 11 50 3 121 8 158 11 89 7
126 -1 137 -32 23 -60 125 -2 178 101 60 117 56 225 -8 225 -11 0 -35 -14 -54
-30 -36 -32 -94 -60 -124 -60 -10 0 -27 8 -36 19 -16 18 -15 21 21 63 21 25
50 53 64 64 39 28 125 130 146 172 12 25 18 57 17 100 -1 55 -5 67 -30 94 -46
49 -107 71 -204 73 -47 2 -108 -3 -136 -9z"/>
</g>
</svg>
